<mxfile host="app.diagrams.net" modified="2022-10-25T12:01:52.370Z" agent="5.0 (Macintosh; Intel Mac OS X 10_15_7) AppleWebKit/537.36 (KHTML, like Gecko) Chrome/106.0.0.0 Safari/537.36" etag="D17HXxuRnpB9Ntibr6Cl" version="20.5.1" type="github">
  <diagram id="WlTHg0HJajelV8VwGul8" name="第 1 页">
    <mxGraphModel dx="1360" dy="769" grid="1" gridSize="10" guides="1" tooltips="1" connect="1" arrows="1" fold="1" page="1" pageScale="1" pageWidth="827" pageHeight="1169" math="0" shadow="0">
      <root>
        <mxCell id="0" />
        <mxCell id="1" parent="0" />
        <mxCell id="jKpcpNzdO18rDiMFqW5U-14" value="" style="line;strokeWidth=2;direction=south;html=1;sketch=1;hachureGap=4;jiggle=2;fontFamily=Architects Daughter;fontSource=https%3A%2F%2Ffonts.googleapis.com%2Fcss%3Ffamily%3DArchitects%2BDaughter;fontSize=20;" vertex="1" parent="1">
          <mxGeometry x="110" y="100" width="10" height="460" as="geometry" />
        </mxCell>
        <mxCell id="jKpcpNzdO18rDiMFqW5U-15" value="" style="line;strokeWidth=2;html=1;sketch=1;hachureGap=4;jiggle=2;fontFamily=Architects Daughter;fontSource=https%3A%2F%2Ffonts.googleapis.com%2Fcss%3Ffamily%3DArchitects%2BDaughter;fontSize=20;" vertex="1" parent="1">
          <mxGeometry x="110" y="550" width="630" height="10" as="geometry" />
        </mxCell>
        <mxCell id="jKpcpNzdO18rDiMFqW5U-19" value="" style="shape=stencil(lZ3JklzHDUW/prcVOQ9rWf4PRYgyGaZJBUV5+HsjTb9XVRevTpK7ZhO3KkfgYkj0W/7pj/e//P7uLYU/vn75/Pd3//rw69f3b/kvbyl9+PT+3ZcPX+2nt/zzW/7pt89f3v3ty+c/P/367d+//7Ik10//+PzP9Qn//oYLt1QWKIX/HL+I9X+/+Os38Y8fPj2LdxFvjcRzEPHZUTw/iccD/0q8injDsefxJJ5uoZB4SSL+/1+8Eq8i3nGq5Xkw+RZxqjWIeMkonkWcB1Ofd7XcIn56SyJeJorrpw88Mz0+iddbiiheRbziVEcQ8Ym7Op6vRzsuwCvxLuINd3UGER+4kPN5Zfot4mBmEvGC530WEe+4MrM9iY9bYPEh4hmOWLyFIOJ0tePx3XfxCQtp4s/XY94yixcRH7CrJv68MvFUsq/ku8p3/vz5LB9RZ8dDszzIN9iqeFz+Uz7dItzAeJzCB3k69fGWZDz5FgbKF5WvON/0fNRiuQUcf04qX0BBRWd2ynExX8nLftVbxvMghsfkO45HLE9st4jrKabH5Ct+vtgek584fjE+saMZj8duPsg30GvxGO0pP44b993yBdfHy2/mK+Ofm/Mjn2/KMaAurEPleX3as5m4n6hX8s/3y6hLQvn+fB4Wd2H55/NvBCDg+IfI11vA+z5FvuHnJ9Wfy47CfqWDf5zy49AwL+SFxZq9KHD+k97ffNK3F/JyfvK5gy/km8jbb3D8XeTzRn6IfDlO4Av5+WwvcsX7ktWeZiNhKB9lPTtSk6z2xeQ7rH/W/c0D79dJ1U/5ifQ6O/JufAPOfz6o0cmvA9r30xc45U0/wH5lZamF9UM5buspn/E+luPTHuQnrE85btMpX5CPFdWHpd4a0L2inL80PM9V+Vvptwr3ser5KXZ+YH2qc7cmEvl6rN7p4gTUP+dtOuWNscB4mtqjmg4G9UJe9Hm1Gwf721Xf1oL2xVbbyRP7784FrLcB+zsOdnrKnyvwQl74Ye3o6ww9n5X5zFAn0+Q7jGeqPqwT+fNUe9TCLcP6TNUn7fRQru11ONyJBwA54QYo8g0cXDHAeL4CzZQqDSmqDmqFOVPUS9kqk6akLqoBJrHQpG5Aa2iWDDAE0DFIZG6UXPw22NHLh958AOA+FHUlG1MhA4hu6RtuXNXYdI5IGkDYU4+ovZYzlRSAG9eOuMkJSMzXuxqEnvHCLX8nKGASQx5uSIVddNMQAqjIuXxwtXNgzXv1nb1Qo41ylno/AgnXgKxRHgMM4tXZRcDYMC+mIN8wUfOlqhfIAERFlq2VOFi4JQJ0DdCPM4R5DXBnacRjK18BZA4GGASYB5s4AcYXiL8H3TgDEMEzgDDgkTFmnF2IyACNKHnU0Oso6JOai1WLAoi0mY8VmwKIlRhA3OpRMRycHW82QKVvqG4fKkbuDSBqZjTeh6aukQEqaI3cNXZogEGA4ebQkUwaQOPa/eBD14B5qN4HQCf3Ih7RyBNgZheOhrlbEsA1ACVczH/SVRqoBMyByjJpI430DVV9VAOQz2MulKRpDEBBU/OhJGEwA6ZezCkSgzLZDTavqDoAGXZzi0Tdz4h2uro7bQAiJ/UMPJ+AdKjna0DVWNxkX8xcF3EeDIDOrd+HhOrenAs53jMjqzSAxO9mRn/J3BFxcA1Ah6/5jcuY21ruRVDAIJc4H3TqBBT04cy90MNXMElk3oIwsskeSmsXANpp8xYkjj0L8iUj/+IDTQ7UGvnXZa2YGTAuL67lrEgSjZqPqACiDj25b2hYFWBMW6Llk6ORxrTFnTYAscrFtN03kNYw4qw3rmHAsDtlPDtmyIw4Cw2dHDI34iyupQFIVS7iXBRAQWEDjKEAUvfGg4WcGICcV6O1ElcyAJksY6lJlnXgshpAMvQGoMjwyE5rDAylDeeAG4BunAH0ig4MBholFCptAIo63DnkIwC4hjG84iZN8SvjX5reH6j5DCARuMnlBouwuUlTisQA3X1DpyGd/OsRAHrJAH4OeLy92R2oKo0dZbdxZB8M0N3Gkf8wo0YqDUA3zgBSuDRP+n4NSOrtzom5IQOIh7IAFGxNjmtMdDhm1nD3nFjOschOdwAakkvgGIC0htl9PXwTbdz0vHViitQA3a0Sxpirs3ETSeKdWTwCaA71iBA/AkAvLWbh9oEYmVllVcYTVeUiCm4O5IveicIjAJSAAdQCTVTGs2uxz5zosS8z7jaOyPoy424OVNG3rHJRAKn7u818BNCQhqM/E+3DXfU+AujwTc0O7AFKEjdDmhenFSc9NeS1/wYJhCwAKYHpXMuJblkM4UJ9cyLoCoFGy5vFiUWZC+AWlsqF7v/9CKADPlV/P0zr5WZrCeIe4Q4gBUPWwrt1ohzEArh7PXlI6qVwHcQlgCJxl0MiknU5aYrfXy7r5l4rO95f0x/TTVfHj9JTlwecuOvlFcICxutbShmwa8RmFk7ZUILqUp0ht7xSmFSH4FXy99zSH0Z4O7EZlLdEqAiubN0GULzmoK0bFwwZd6JfsBpUyd0FdTg6vaIZ3krQpLtzbTbKrF3ca7oSi/u5OWBZSLuYQ+chRbesVJEwvau/0RxV0/87ClGPbOj3ar96oTcobLQ8FTdpKiWZPt63KbcpLpgwMS+3YtEOgCw/a83DzlNxCaSdL+RqTxaAJp0u3AJ0AF2V71Jt9A2uzHoBSFW6dw/LryatES6cWHrENd2DtaVtNzEat9MUnV5RIB/f2MSZXCSLtPdlJIt434qV+RgNHL4VjXMhSNKtozuTxenO4dLOkyvoVszSBabIUxnVxb8H8r5RDj33COBAbXT7QFXjK3bsVoki7Cs67UPBDFC/euAVHdExAc6Ej3ARncbExXQb1zk14ulPR4a/Mh0ucUHxjd71+c2dTFwDmlMzHVOFvTqt0TFm2asjWPwQsRetTTQAPVlbWTP3DRRnWnk5n2ajrFk8bvADgCoHu3s4atyAvMU23RWteOPacIqsYvHWysBmBWAW2ZWHzYKab2WRHYD40spTJwUQ12g+Ol140kmfB8+C9QIrm++S82SBmns3O/k5dJ1aA3RnUNeA4W5cRvqzqiqqArBIoumjhEW56BFAdcuakIau2pOsAMoSrOoWVw5DWqP6jYv8UCK4DGzEerJVAySAgOq++H04X9pfA1xxrwGweMvduMEhy1WLlRRAZL1kJViDWWVJ+qBqMJspQSNAg5PC2YVCBr8Oz0M99sUCwWTlru6AAejGZeeAL9pIgKYVzUYbKTiYqyYu7jzzGlDcsja00wbIUlRa+aVaVupgAOIaObtSw4pWNCd9mrGYLNWIRlVkBsDXfFHvtDFZ0nzr9aQr7qULlJy6NwCxylXRLKuUMEWVXKXUSFwo7iJYqxqFAZKyNQAd7+RLbwMyMv8MrXP8PhWNrveJtScpa3Szc1XFeknaFEDu8Xr6K69FOj59XL0N5Bsaam/f8aY3LOmJU6tbOr+GjeOoVD8B/PwxdvXjDID9Irr6cUbfySjGpuze6DuZ3egq1gxA9WSxulWKeFpXSwaZQ8C8X3QlDAagEuh7U4kD0DhPHR0zNgeB3rlGR7AMQD7Q6rsh77M6Dylp8VZrmEWJUUOPrfHbf9dswlwQstMGkNeWywUhQHCT5uJeAwjBMhcEM7yqZRo3jpruaWDkwKOqjBY4Oqsh7Mo5Rff4y9wVmu/Qm2DydDmHBosrNxpy9Rrm3GCIRV/3VH5a1rVOzeTJ2Halw+YKkePTNDRRN/XqamkrdxJrGtkzx4nfh0vko7IPU5WymdtEcYyqIeIy0Bsuyl0KV+a60Gfh8+A0tflY6FFphG71C0B537+AUqZZ37eXvOnvIOdn9VMgb0rDSKtfA/a/EJVb+Els1vd5mYmdeza8+lng+MU/zRx4zmoBMhdqJw2+5I5Rs6T7tfqJEPPVsEWueL/c45HVDwX7s0jh4XLbsH+KRM3NCdvIy3giFnwkzanmwN6NcuTE/SmSlvqvjglksFWf3J2dF/KSi1waFftPiX1cHT2wP5TY99UukftbST+gjCGjqPp57QjLy+dHfvev52H1k8L5at/MXb8qsb/bfljaT23Xb8vLcz8viZqs9/PYf0q7kPZNP74cVZ57GwrfW/3UcH2EpEfuPxJVP5s88U/fX48TIS4gs/rZ4XoKf1jOGe5vLCrP+yt8ablmP9RvMW/WU56TRI7Vu1aXyy/DdqrCh2PatF+V4Grk/l9BfbYYkc8HzZnGsOkEKi8eVr9L/nxJA+ATbv8GcNOHVxOHm76k+mQduadLQHMgPCi1HRiUCxpB7hhxdm0P+KX6hTiZ0aD1ZA2jFa4pcNscSiG1DXVm0GIebp7jEkd1cwPF4tZNl18xuGXTQ1jsZ0H3yTXBLvi6Jzi2hmWCQd8oZrTNQUOBTF2Ca5W4GYwErdNmMJLCScjTXJupiDQnuLa6mxOpVgRzBkGdyrDRMxLj4WDklThqAgldho1Bk5qYgPwpKL8Pmz7rspBho7Blm7gAOmjN6lZct4l3VajNbuxJt4lXJrmxsyZwrfxZE/xg538Wtx/uf2Tgtw8fP377GwWP/69/lMB+9e0PGuSf/ws=);lineShape=1;sketch=1;hachureGap=4;jiggle=2;fontFamily=Architects Daughter;fontSource=https%3A%2F%2Ffonts.googleapis.com%2Fcss%3Ffamily%3DArchitects%2BDaughter;fontSize=20;" vertex="1" parent="1">
          <mxGeometry x="129.37827882810996" y="116.78343730101507" width="599.017303853097" height="426.4989157856403" as="geometry" />
        </mxCell>
        <mxCell id="jKpcpNzdO18rDiMFqW5U-21" value="" style="shape=stencil(lZbdUttADIWfxrdnpNX+XlN4D2YIjYc0YUKg5e3R1mOIlkSd3vnv88pHR8c7yc3L9v55MwV6OR0PT5vf88NpO8mPKYR5v90c55MeTXI7yc3j4bj5eTy87h+W8+f7/mQ/+nV462/4s3CNUEKnAr0vV2JCan+v3C3Abt6fAxmlGCAJWnWAhsoGyIKaXSCJAUoEeyUltGyAqis4QG2IFmiMFh1AVbIltYLE14FCyFYlJgLRdSITJNolGtiRKRGq7ZzqQE4jooBtI2oFO4BUkAVK84EMsrrmBhIHKGMjUkV1VIphXCGqW5zO6W1pFggITklaQK4G0CKzs0KuaMkCGSE53lARrZlU6OB8dG+TXUFbGfyBoGFG6V8zykPjCLFcB87c/OkNWoPh8hI6MBbQofJa3UdysGtbX3FZJh36YUg1GJySeqzYkr6i53KrBeXbjFYnBjQa6wBofHozmhCHoVZZHTN1QP4HkDima09Dx0whrm7+BBKyE0yc1rQ+i43ofHRBtW4tDHHaEMYwzrym7cXn1ar2AxKvKXLteWuLSODg1ZNsYgRfUc0TWz831xQcR4GYkZweBxmBBHEmRz0x/Bm0AY6garpBofHfpgdfO47HebdbNizn98cdil5adjdy+wE=);lineShape=1;sketch=1;hachureGap=4;jiggle=2;fontFamily=Architects Daughter;fontSource=https%3A%2F%2Ffonts.googleapis.com%2Fcss%3Ffamily%3DArchitects%2BDaughter;fontSize=20;" vertex="1" parent="1">
          <mxGeometry x="265.8631549603631" y="590.8554605684617" width="2.51462274023811" height="2.5223367616044925" as="geometry" />
        </mxCell>
        <mxCell id="jKpcpNzdO18rDiMFqW5U-23" value="" style="shape=stencil(lZbdUttADIWfxrdnpNX+XlN4D2YIjYc0YUKg5e3R1mOIlkSd3vnv88pHR8c7yc3L9v55MwV6OR0PT5vf88NpO8mPKYR5v90c55MeTXI7yc3j4bj5eTy87h+W8+f7/mQ/+nV462/4s3CNUEKnAr0vV2JCan+v3C3Abt6fAxmlGCAJWnWAhsoGyIKaXSCJAUoEeyUltGyAqis4QG2IFmiMFh1AVbIltYLE14FCyFYlJgLRdSITJNolGtiRKRGq7ZzqQE4jooBtI2oFO4BUkAVK84EMsrrmBhIHKGMjUkV1VIphXCGqW5zO6W1pFggITklaQK4G0CKzs0KuaMkCGSE53lARrZlU6OB8dG+TXUFbGfyBoGFG6V8zykPjCLFcB87c/OkNWoPh8hI6MBbQofJa3UdysGtbX3FZJh36YUg1GJySeqzYkr6i53KrBeXbjFYnBjQa6wBofHozmhCHoVZZHTN1QP4HkDima09Dx0whrm7+BBKyE0yc1rQ+i43ofHRBtW4tDHHaEMYwzrym7cXn1ar2AxKvKXLteWuLSODg1ZNsYgRfUc0TWz831xQcR4GYkZweBxmBBHEmRz0x/Bm0AY6garpBofHfpgdfO47HebdbNizn98cdil5adjdy+wE=);lineShape=1;sketch=1;hachureGap=4;jiggle=2;fontFamily=Architects Daughter;fontSource=https%3A%2F%2Ffonts.googleapis.com%2Fcss%3Ffamily%3DArchitects%2BDaughter;fontSize=20;" vertex="1" parent="1">
          <mxGeometry x="129.8631549603631" y="285.8554605684617" width="2.51462274023811" height="2.5223367616044925" as="geometry" />
        </mxCell>
        <mxCell id="jKpcpNzdO18rDiMFqW5U-24" value="" style="shape=stencil(lVdBctswDHyNrhiSIEHynKb/yEycWlPXzjhO2/w+UDVSTKJe2zdZXpAEsFiuBn542z69bobg3k7Hw8/Nn/H5tB342xDCuN9ujuNJnwZ+HPjh5XDc/Dge3vfP8+/Xpwk5Pf06/J5W+DvHRfJuCgruY37hI0n59+b7jN+N+zN8Jl9bPFOKl/E+kCttgCefQEAh55uAQilfxgcmCQ1eKAvAF4qpwSfK4TKeIwVu8JEqWD86EunwyQG89OszlXoZnzyx7/AB1CcJxbZjAdZHvMUHQAgRKh2DqAJCZD1u6vAB1D9XcrHBO4ivyujc4R2ofxVy3OUraP1MuctXD4Q2qMv+6wa4QhrQVZSFhMHIONdvkbTJHm6R2iaLThkKKP2UlUAMaKdl8u3c10AFZZ0otjvongVkXVV42sZpVjBpv/y9BiRiQO3qFqVakxZi0OpiWq1sj+BIRcWoa1xZ9PLGgKhkuutIqo9IT23SqvACBMmWNeIBWi+Ms4FG6xti+GXCb2SevgCCZ6ntMwmez2542EOJ/898xryo+I0SIEyMimSZp0TCVepkTJlS0JGMTuoS8EhxKfuXUF6RYiPd1yLs5TBpALIv5vbR9qMAe71pgLvr/pxKDebBXtAaEAD/rAPQ3mSglNZiaIAHvbYeRocQMdyaJA1wIAfrwrT5yGZYm6c6gqpkfaQKVUS3qHGqKrYFOFVjhfV2iMgZ9la76PWDnOfSoxUfoVCGXveKh85QadQ2OQsskOsVIzs4CW7pz6phgRLI15oYzReu34uqOnnACHMezhRBfUy+oULfZuqpHUzoS6Tvl1IWjbHhg0/Q79z7aXcdrw9f35Ev4243f4ae/99/d+qr+ZuVHz8B);lineShape=1;sketch=1;hachureGap=4;jiggle=2;fontFamily=Architects Daughter;fontSource=https%3A%2F%2Ffonts.googleapis.com%2Fcss%3Ffamily%3DArchitects%2BDaughter;fontSize=20;" vertex="1" parent="1">
          <mxGeometry x="115.1437162036816" y="116.77879403053794" width="20.900830696652292" height="2.442411938924124" as="geometry" />
        </mxCell>
        <mxCell id="jKpcpNzdO18rDiMFqW5U-25" value="" style="shape=stencil(lZbdUttADIWfxrdnpNX+XlN4D2YIjYc0YUKg5e3R1mOIlkSd3vnv88pHR8c7yc3L9v55MwV6OR0PT5vf88NpO8mPKYR5v90c55MeTXI7yc3j4bj5eTy87h+W8+f7/mQ/+nV462/4s3CNUEKnAr0vV2JCan+v3C3Abt6fAxmlGCAJWnWAhsoGyIKaXSCJAUoEeyUltGyAqis4QG2IFmiMFh1AVbIltYLE14FCyFYlJgLRdSITJNolGtiRKRGq7ZzqQE4jooBtI2oFO4BUkAVK84EMsrrmBhIHKGMjUkV1VIphXCGqW5zO6W1pFggITklaQK4G0CKzs0KuaMkCGSE53lARrZlU6OB8dG+TXUFbGfyBoGFG6V8zykPjCLFcB87c/OkNWoPh8hI6MBbQofJa3UdysGtbX3FZJh36YUg1GJySeqzYkr6i53KrBeXbjFYnBjQa6wBofHozmhCHoVZZHTN1QP4HkDima09Dx0whrm7+BBKyE0yc1rQ+i43ofHRBtW4tDHHaEMYwzrym7cXn1ar2AxKvKXLteWuLSODg1ZNsYgRfUc0TWz831xQcR4GYkZweBxmBBHEmRz0x/Bm0AY6garpBofHfpgdfO47HebdbNizn98cdil5adjdy+wE=);lineShape=1;sketch=1;hachureGap=4;jiggle=2;fontFamily=Architects Daughter;fontSource=https%3A%2F%2Ffonts.googleapis.com%2Fcss%3Ffamily%3DArchitects%2BDaughter;fontSize=20;" vertex="1" parent="1">
          <mxGeometry x="124.86315496036309" y="141.85546056846158" width="2.51462274023811" height="2.522336761604606" as="geometry" />
        </mxCell>
        <mxCell id="jKpcpNzdO18rDiMFqW5U-26" value="" style="shape=stencil(lVfZctswDPwavWJIghee0+Q/MhOn1sS1M47T4+8LVaViQtZO8qYoWBHH7oIe+O5t//i6G4J7u5xPL7tf49NlP/C3IYTxuN+dx4s+DXw/8N3z6bz7fj69H5/mv18fp8jp6cfp5/SF3zNOMpU0oYL7M7/xnrj8e/MwAw7j8QpQC4nvAZkybwNKoRI7QIhUMwA48n1KzBTSNiAHkv6EyORkG5ASxb6GxFTjNiCWVmID5EjJbwNYSFwHKJEcKNoXCn1KUikjAJNIDxAqAQAcRTNp58g50FeSYk+IgBpsmaEleDAGT7nvkZIxgHhHweTDLcON+P8dX+I9zN+3brT4KuQA75R2tY/PMJ9E1Xw/tZHcjBfyfb01UgYs9YEKrwBAmqpc71cZIQ5VkrQqGZygM5B+BrU23t4G+Pa966EBkirAGNjECgRQHfRuMdEOdalaP5LlzW1Asm2dhIMAvs31s9LUBJw9oSADa4577S5oDCup5Ub2DaklY0aRCpamyT8Qg3r1+4ZGQhXxjkLo49XBgV9rtn3+KoQK+vPVeGWpsfeMvU4nbMw36YYAE2bdwr0b6dIKoKUxNgYsazbDza87kvsa1NESWFGZWwILrRMJsJeS29peugR3oDbdGd1QBE2dzKpPyFEGupy8qpp4D2agVmUcG6tYnYqTiUdOJIlYTDxSgRTy2fSnoIVTKfX5Lzer2/FCyVy8iJGTupXuVTYoIbHboMBloPHcJ1ShLLXgYBrkoMq+fF3+BEAfPm7nz+PhMF/ur/9vb/P6av4lwPd/AQ==);lineShape=1;sketch=1;hachureGap=4;jiggle=2;fontFamily=Architects Daughter;fontSource=https%3A%2F%2Ffonts.googleapis.com%2Fcss%3Ffamily%3DArchitects%2BDaughter;fontSize=20;" vertex="1" parent="1">
          <mxGeometry x="114.19036329542269" y="120.11445870431794" width="9.691956874066364" height="13.774727266536729" as="geometry" />
        </mxCell>
        <mxCell id="jKpcpNzdO18rDiMFqW5U-27" value="" style="shape=stencil(lVfLctswDPwaXTEgwec5Tf8jM3FqT1074zht8/eBqlARIWs7ucnyrggsnhzk7mX/8LwbPL9cL+efuz+Hx+t+kG+D94fTfnc5XPVpkPtB7p7Ol92Py/n19Dj9fn4YkePTr/Pv8Qt/J16tlMrI8vw2vREK/t+L7xP+eDgt8YFC6PDOUUzbhFJXhEKOAUGIe4t8pFi2CTk2i2cXhEreJqREJXaE4CmAE2KmKB0hOvKyTQiFsusJs863CUxSO0LK5Oo2QV38ELERslACcfD6vd6kXMkhgreyamRC3CZoXHMva8ktlLfjQJw6vCYjA58juWLxCRgUyHmLrwDvqdYVHuSRo+os/iPsG3hmi0cx1pzo9ayFAogYExt/MyVQaYo330/QfraVXCOsM0cuWrwD+eBtSmuzycB+Ib/CozIOJN7iUeuKJMniK9AntWgu/I0Qn1f6e5APqWXvIr4O9TkqRp/SKm4D76vFF6hPWNVLAPbP0VngC4iXkOQO75hbCW0kkF81lALatDbxlUECC9KMARUog2HJrZ0tAlZxQbLFI395Zb+mYED4skpQ7O/X8E6aHIuREYFBTvXoFS3cxtTWUDKErFmLCLUpMhMYJrUkkl7UpHkLTgihbSfzrE9wbESxJ+i6EFAde5t3Ultp396IuKXZTNBUByfkQtKPMi0+BoQyazLXZqQEIq1roO+LucLeqK1WzNpIAlweR0WvkYYZ7bHR9gqdbqBVKN5IynB70kqM1eAZ+ZttBHCrG1u5t/Yg+0vbDj/xAnqvdkJv7clgdxpXsV5/zTikf7V6Ovj9ReufU7QptnmAGDwaNl++CP0Xrw+ft66nw/E4XdqW/9tbmr6abnhy/w4=);lineShape=1;sketch=1;hachureGap=4;jiggle=2;fontFamily=Architects Daughter;fontSource=https%3A%2F%2Ffonts.googleapis.com%2Fcss%3Ffamily%3DArchitects%2BDaughter;fontSize=20;fillColor=#fff2cc;strokeColor=#d6b656;" vertex="1" parent="1">
          <mxGeometry x="110.45216856849584" y="121.43128177732069" width="19.119364384937626" height="24.10613293737333" as="geometry" />
        </mxCell>
        <mxCell id="jKpcpNzdO18rDiMFqW5U-28" value="" style="shape=stencil(lVfLbuMwDPyaXAlJpCTq3O3+R4Gmm2CzSZGm+/j7pWHYsehkgt4cZ0jxMRzKG3762L28bzcpfFzOp5/bP/vXy27D3zYp7Y+77Xl/sacNP2/46e103v44nz6Pr+Pv95cBOTz9Ov0ePPwd7VqjVAerFP6Nb4TK+OL7iD/sj0s8U2odPkaKwEAzhf6A2Kjm+wZVKYfOIJXJxW2DQLU/gRkalESpP0ECSblvkNmfIEpJ7htIptJXKWdqwICVWuwMLEgGVeJEtc+hVGp83yAphf6EmkgiMBDiPulaiMEJ1lfWzkAtSGBQSXKHbwq5Z8f3RTXyCsBnitHjWwI1naJd4oH/uX4LfAH+IyX1+TbQgZmUM74+wAfp8YUqiMfwzn+G9QyUXb4yicGdfNn5Z2LEOD/4LcF6Mql4PAfEhxRXeEV8E/V4BTJRKSefbwH+dRWPUAX+lcTx30QF+mfH50oJ1LNSdfVUqEHGLlefBlUxU84er4APQtGtmmCUBQ1OK0K0KcQ7BC2rgY+A0MGruhUowYGJqwZEIIhzdosGK4yHVwRCAhpXAmEEBQ34Mp5XO8aWOWpAmwZ2sZQCMLCZdxwq1gIwMzYEpRehIvAElmlRz6tbScEUSPRjk03IQEgys36+TeC5twDcnYvLdCG5PZjFEzs1qHTVRq2XroSlVFe7IBY4+6p+mc1qefueKSR9CkZGjG99jSxCEI9NVskOnwC1bZW6y03A8diki8eDghpevf+I4teJY1e8AJYOyubzRdIyXGWCq7+geNrkbmYQHLOFlF8N0BAMd7GeEPwooNIX1DiOGvDVD6GHeHu4fnW97Q+H8aNt+b//SrNX4xceP/8H);lineShape=1;sketch=1;hachureGap=4;jiggle=2;fontFamily=Architects Daughter;fontSource=https%3A%2F%2Ffonts.googleapis.com%2Fcss%3Ffamily%3DArchitects%2BDaughter;fontSize=20;fillColor=#ffe6cc;strokeColor=#d79b00;" vertex="1" parent="1">
          <mxGeometry x="115.35934838597836" y="127.39639874904265" width="19.246463792221675" height="21.219659940715587" as="geometry" />
        </mxCell>
        <mxCell id="jKpcpNzdO18rDiMFqW5U-29" value="" style="shape=stencil(lVfLctswDPwaXTEgwec5Tf8jM3FqT1074zht8/eBqlIWIWs7vSnKrgwCiwU4yMPb/ul1N3h+u17O33e/Ds/X/SBfBu8Pp/3ucrjq0yCPgzy8nC+7b5fz++l5+vv1aUSOTz/OP8cv/J54tZLzI8vzx/Qmkst/Xnyd8MfDaYl35GuHd55y2SaUSNUQCnEFBCbmjuCFStomZKHsekKlErYJKZHrCZLIg1+IhVzpCEFgliJTkD6rTMLbBP2eOXRMVP02QSOuqSMkT1UAwZEYQqEADu0T5dwRNNEC0uo9lb7SOVMCBBVCjR2hCCQkin1EtVABZ44U+++r2iOQXrApUnwF2hbbOyMeHdieV/EBxMNUV+dNQHazxmZ8bhnbwBvR1QRVyuQMPrYvbOBjL4iqnQzwjoLJp0oKNIGn6CzewXrlvivVzVDPhFX+fXOODX1ysfgE6ptW31f9g+9rNU1+AvTe3H59UV+G+GD0n1tHbMT/12YX+oygvrFZ2kL/AvQZrAMpvoB8CsW+vo4ZCtSTrAJCBdPht2pIZBDc2nuR0AoSqtGaAqgJA0NRvIk/tsGzZRAmngAbxtlBqQJFDXAXDxrYuaaXeQIwTKiLJH2Jc6KELKXYEmQPB6tqwpiEzkkkunWXpUAeJEmEQt82cR6E9wm1iWAm4FkfMnF/hpDa2na/MWcfmTciHJIuG6lXnu4XcOeqbVLPS1qE3qJ1ZbM3Vkgo3orP4W2iqJ32aS0Qr71ltkCG00nxpmxz+93Hp2aGNzxqNvUSjgaPzE7xq3gYJFS9zbgF3mFHL7TxJ9DL4/LTx+9g3yg+G0VAyd2Wt1lybT7ctwpe7UMCrwXjNEoGj9x93D57fGhdtIX/v7vZP/H6cLsIvhyOx+keufy/vTjqq+nSKY+f);lineShape=1;sketch=1;hachureGap=4;jiggle=2;fontFamily=Architects Daughter;fontSource=https%3A%2F%2Ffonts.googleapis.com%2Fcss%3Ffamily%3DArchitects%2BDaughter;fontSize=20;fillColor=#ffe6cc;strokeColor=#d79b00;" vertex="1" parent="1">
          <mxGeometry x="116.36920650384491" y="138.3931906823209" width="21.23571890929884" height="20.237334484712278" as="geometry" />
        </mxCell>
        <mxCell id="jKpcpNzdO18rDiMFqW5U-30" value="" style="shape=stencil(lVfLbhsxDPwaXwlKlETpnKb/ESBObdS1A8fp4+/LrSFnxfVOkdtmM/QOOSOS2sjD2+7pdbuJ/HY5n75vf+2fL7uNfNnEuD/utuf9xZ428riRh5fTefvtfHo/Pl//fn2akNPTj9PP6Rd+X+Nao6JTVOQ/1zdCwv9efL3iD/vjHK8kbcArBQH4RJoGfGBSFBAoyRiQKJf1gFqojoxCJUUBgaQMAZZzAjlrpljHgEqtrQeUSpLHombKKIApjlVKQiGvB+RAykOAvZG4HmC/F8ey5kY5rQcYYx5zKEoZfMGMkMeyWt2QNSJ74WqkAHQIC0pVqQKlhcqom7ldgAzS+c7wWkEGlIrHN4A30XSBV4QPYcEH5MtegSlfiA+uPpUqUIyJ2eMjEMzwo6ute2TgaiZx+RZqkL8Wj0+wnrLAB3AG4oJ/IQ4Ir7LAAz/IHT5IL+lun+Er4JMW+lr3BnwSxfFAmr6MmgoF9fiC+bt6tt6V1uqzOI8F6BupNI9vWN/Rz4FvFl8zUPQfqNDQ3hDWdIFgvBCgQQGWB6xSgr/vD7D2lrTGZ4FHY4n7lJsZtEA+n8OH6CdxzX1duB9gBh4V0AbXD/O0jj1IYx+19z1qlMaAkmGTSOyXg1zg1EjVj43pDaCUleL4BfsmsoUxdo3CskKDT0OfW7eNKMONSJXaSGnyIlrShNhtdblndT9A/QoVQm8f9xdN7rPiY5NFzbRJX05uVcWLbKYyphxgxu1WwY5nKqB5TbMuObwg/sVLwHDbmmZ1cHjUG6dZoR6P6lP7UZ/xARayVujqz339WsNnj0fLzbRbOcf1ZrOGb8Xh0ZmZzZbbGcBXLfuAx1cwDD59lfsv3h4+7o0v+8Pheu2c/9/fM+3V9Y4qj38B);lineShape=1;sketch=1;hachureGap=4;jiggle=2;fontFamily=Architects Daughter;fontSource=https%3A%2F%2Ffonts.googleapis.com%2Fcss%3Ffamily%3DArchitects%2BDaughter;fontSize=20;fillColor=#ffe6cc;strokeColor=#d79b00;" vertex="1" parent="1">
          <mxGeometry x="109.86293933599632" y="153.3734794300957" width="26.76382848553294" height="28.75010421007937" as="geometry" />
        </mxCell>
        <mxCell id="jKpcpNzdO18rDiMFqW5U-31" value="" style="shape=stencil(lVfLbttADPwaXQlyuc9zmv5HgDi1UdcOHPf196WqSvVS0RgBfJDlmTV3SM5yB3142z+97obAb9fL+evu5+H5uh/00xDC4bTfXQ5Xexr0cdCHl/Nl9+Vy/n56nr6/Po3I8enb+ce4wq+J1xoZZfzw7+lNIm1/X3ye8MfD6RbPVGKHl0Qctwk1UpSOEIRy2SaUQiX3hEpJAYEp9yFpogRCykra/0MMlOo2ISUq3BMa3EOsJLVXNVNkQBCqpSNkoSbbBM1zAAshkwKVNFBOHcF0k7BNMNVbXxlFKSKCkvSylkYMZJU2BzATqmUmAUKi1v9DLcRg04ZvHb5VKhDPfSVZe6DCUGorfAPdE6jyCg8klTnaG7yCeJhq8vuNoIqYgsMXEqAPE7v4E+wD9glucW6MDXxy+TLFQPxC2jdBM8UAPszq3eAZtKVS6r1rtD9QoNE7keEbMhbK2ceTAd5MJHl9/pnlBt7XZ4Q9b93k9LQIgZ6ZqqvPZYUNvK+3Olvxhj4+X1b/wNkjafB46KLepoUZFkRYCdSgQLJqADMg2DAxeEETMBReGVYmget7fLzTwOoaUimABMhs+DcFiqaDD+OXA2I5Yyp0LCm+5EqkClrMUuw8dzwnESH7IsqWM6BpaLMnLAQLCXSlRj+v5MX43idYUbqhrlBEfWMHZW/syfIAjC6t8mBLoKM789yIy5BWKSCrW/K6EIQCaLWSfK+ZHQjonSrefcdiAW5UV5Op2OgJim9sxl5Wht1v+FQcHok6ntZ+fUbDe/E7xm5nZhX0I+tXL9Cd+FeXD9MH1MRotv1+Bc68hq8uYXA8u3H/pYbgPPEOwWZkUELriPBAtN6xWQVo5A9f5+7i7eH/3fHlcDxOV8/b3/1d015N91R9/AM=);lineShape=1;sketch=1;hachureGap=4;jiggle=2;fontFamily=Architects Daughter;fontSource=https%3A%2F%2Ffonts.googleapis.com%2Fcss%3Ffamily%3DArchitects%2BDaughter;fontSize=20;fillColor=#ffe6cc;strokeColor=#d79b00;" vertex="1" parent="1">
          <mxGeometry x="112.21674363914349" y="170.40230806114835" width="25.3766482211488" height="19.382481447560963" as="geometry" />
        </mxCell>
        <mxCell id="jKpcpNzdO18rDiMFqW5U-32" value="" style="shape=stencil(lZbdUttADIWfxrdnpNX+XlN4D2YIjYc0YUKg5e3R1mOIlkSd3vnv88pHR8c7yc3L9v55MwV6OR0PT5vf88NpO8mPKYR5v90c55MeTXI7yc3j4bj5eTy87h+W8+f7/mQ/+nV462/4s3CNUEKnAr0vV2JCan+v3C3Abt6fAxmlGCAJWnWAhsoGyIKaXSCJAUoEeyUltGyAqis4QG2IFmiMFh1AVbIltYLE14FCyFYlJgLRdSITJNolGtiRKRGq7ZzqQE4jooBtI2oFO4BUkAVK84EMsrrmBhIHKGMjUkV1VIphXCGqW5zO6W1pFggITklaQK4G0CKzs0KuaMkCGSE53lARrZlU6OB8dG+TXUFbGfyBoGFG6V8zykPjCLFcB87c/OkNWoPh8hI6MBbQofJa3UdysGtbX3FZJh36YUg1GJySeqzYkr6i53KrBeXbjFYnBjQa6wBofHozmhCHoVZZHTN1QP4HkDima09Dx0whrm7+BBKyE0yc1rQ+i43ofHRBtW4tDHHaEMYwzrym7cXn1ar2AxKvKXLteWuLSODg1ZNsYgRfUc0TWz831xQcR4GYkZweBxmBBHEmRz0x/Bm0AY6garpBofHfpgdfO47HebdbNizn98cdil5adjdy+wE=);lineShape=1;sketch=1;hachureGap=4;jiggle=2;fontFamily=Architects Daughter;fontSource=https%3A%2F%2Ffonts.googleapis.com%2Fcss%3Ffamily%3DArchitects%2BDaughter;fontSize=20;" vertex="1" parent="1">
          <mxGeometry x="127.86315496036309" y="154.85546056846158" width="2.51462274023811" height="2.522336761604606" as="geometry" />
        </mxCell>
        <mxCell id="jKpcpNzdO18rDiMFqW5U-33" value="" style="shape=stencil(lZbdUttADIWfxrdnpNX+XlN4D2YIjYc0YUKg5e3R1mOIlkSd3vnv88pHR8c7yc3L9v55MwV6OR0PT5vf88NpO8mPKYR5v90c55MeTXI7yc3j4bj5eTy87h+W8+f7/mQ/+nV462/4s3CNUEKnAr0vV2JCan+v3C3Abt6fAxmlGCAJWnWAhsoGyIKaXSCJAUoEeyUltGyAqis4QG2IFmiMFh1AVbIltYLE14FCyFYlJgLRdSITJNolGtiRKRGq7ZzqQE4jooBtI2oFO4BUkAVK84EMsrrmBhIHKGMjUkV1VIphXCGqW5zO6W1pFggITklaQK4G0CKzs0KuaMkCGSE53lARrZlU6OB8dG+TXUFbGfyBoGFG6V8zykPjCLFcB87c/OkNWoPh8hI6MBbQofJa3UdysGtbX3FZJh36YUg1GJySeqzYkr6i53KrBeXbjFYnBjQa6wBofHozmhCHoVZZHTN1QP4HkDima09Dx0whrm7+BBKyE0yc1rQ+i43ofHRBtW4tDHHaEMYwzrym7cXn1ar2AxKvKXLteWuLSODg1ZNsYgRfUc0TWz831xQcR4GYkZweBxmBBHEmRz0x/Bm0AY6garpBofHfpgdfO47HebdbNizn98cdil5adjdy+wE=);lineShape=1;sketch=1;hachureGap=4;jiggle=2;fontFamily=Architects Daughter;fontSource=https%3A%2F%2Ffonts.googleapis.com%2Fcss%3Ffamily%3DArchitects%2BDaughter;fontSize=20;fillColor=#ffe6cc;strokeColor=#d79b00;" vertex="1" parent="1">
          <mxGeometry x="126.86315496036309" y="163.85546056846158" width="2.51462274023811" height="2.522336761604606" as="geometry" />
        </mxCell>
        <mxCell id="jKpcpNzdO18rDiMFqW5U-35" value="" style="shape=stencil(lVfLbttADPwaXQlyuc9zmv5HgDi1UdcOHPf196WqSvVS0RgBfJDlmTV3SM5yB3142z+97obAb9fL+evu5+H5uh/00xDC4bTfXQ5Xexr0cdCHl/Nl9+Vy/n56nr6/Po3I8enb+ce4wq+J1xoZZfzw7+lNIm1/X3ye8MfD6RbPVGKHl0Qctwk1UpSOEIRy2SaUQiX3hEpJAYEp9yFpogRCykra/0MMlOo2ISUq3BMa3EOsJLVXNVNkQBCqpSNkoSbbBM1zAAshkwKVNFBOHcF0k7BNMNVbXxlFKSKCkvSylkYMZJU2BzATqmUmAUKi1v9DLcRg04ZvHb5VKhDPfSVZe6DCUGorfAPdE6jyCg8klTnaG7yCeJhq8vuNoIqYgsMXEqAPE7v4E+wD9glucW6MDXxy+TLFQPxC2jdBM8UAPszq3eAZtKVS6r1rtD9QoNE7keEbMhbK2ceTAd5MJHl9/pnlBt7XZ4Q9b93k9LQIgZ6ZqqvPZYUNvK+3Olvxhj4+X1b/wNkjafB46KLepoUZFkRYCdSgQLJqADMg2DAxeEETMBReGVYmget7fLzTwOoaUimABMhs+DcFiqaDD+OXA2I5Yyp0LCm+5EqkClrMUuw8dzwnESH7IsqWM6BpaLMnLAQLCXSlRj+v5MX43idYUbqhrlBEfWMHZW/syfIAjC6t8mBLoKM789yIy5BWKSCrW/K6EIQCaLWSfK+ZHQjonSrefcdiAW5UV5Op2OgJim9sxl5Wht1v+FQcHok6ntZ+fUbDe/E7xm5nZhX0I+tXL9Cd+FeXD9MH1MRotv1+Bc68hq8uYXA8u3H/pYbgPPEOwWZkUELriPBAtN6xWQVo5A9f5+7i7eH/3fHlcDxOV8/b3/1d015N91R9/AM=);lineShape=1;sketch=1;hachureGap=4;jiggle=2;fontFamily=Architects Daughter;fontSource=https%3A%2F%2Ffonts.googleapis.com%2Fcss%3Ffamily%3DArchitects%2BDaughter;fontSize=20;fillColor=#ffe6cc;strokeColor=#d79b00;" vertex="1" parent="1">
          <mxGeometry x="115.1467436391435" y="189.78230806114834" width="25.3766482211488" height="19.382481447560963" as="geometry" />
        </mxCell>
        <mxCell id="jKpcpNzdO18rDiMFqW5U-36" value="" style="shape=stencil(lVjZchpBDPwaXlUz0pzPjvMfrjIOVAi4MLn+PtpQs6yEaYq39aL2SGodPbuSp4/Ny/t6xeHjdDx8X//evp42K/myYt7uN+vj9qRPK3leydPb4bj+djz83L+e/35/mSynpx+HX9N/+HPG9UYhTSgOf89vKpXw/8XXs/1uu1/Yt06lGvsYqTAACEmwgES53QbUQsmdUEnybUDplLsBcCBJAMDUbcwslEHQuRBnC1AngUs5ELsTGnUASJlyNAAJ1EFapQ+PZ4AmOgJAJhELyFRB0KxM27TqmQmklROlZgBJ0yoAEChZl1KlCLKkheB40EQ3BBDq1iWlsoHii+zboURqHQC01Gy1ajlGDGiu4dIo+Jsx2BNaI0ExZGJbGtq0DTCtgG6Z7rino/ZDsQChgni4PiFTwTFEB6iwRacsOZcabCBlOrEFdKrIpUDVVmsMgQLwqVNo/oQMslRH0hchJFBKZXTXbF9gyEpC8CQg/zM1O5P6PDhv+MO2UHsYpNyIl228WqcM7NvYG4tGCGDkKWPRAXSTgAN0lbXHADIIWrqEqi5Rk6uYUffnUZTLpKIyLX71TKyhEwpFB8g4hqtdNdUdmPMadHKAhpuZx7Jcdg4mzouMu71Zoj+hgiwprdWH0EHtPWqvw8UWUtVpAHI6RzfbRziBg++dUjDJfumUAHszEdt8ZoE6soytOq/+docvtzVVWwjemuzkDlYvsflhofooAcZUM7rOlDi08eeA6gUV494XHpQuZCcSI1L9RtAZHkAVaRJdG2hUCQGaV5FaKQ3URU6eh9ihttA6q07+l9EbnwPqWKozQGUnYFr1VrZSQRdFQnee6MVIpYp6v/pplOGe0nnrdLCKSpAiHbfOH50GoPen8dy8Peo1DS87+whWziRTirPPgLF+JYwilMwX2XSxR5cptW+2hHhs3Rs64WqaClwGeoC7QCaqiLA+blqXgkDDXe3ZTWs4u5SAapWU3qNQwT146b9vrw+XLwxv293u/IFi+bv/IqGvzl8z5Pkf);lineShape=1;sketch=1;hachureGap=4;jiggle=2;fontFamily=Architects Daughter;fontSource=https%3A%2F%2Ffonts.googleapis.com%2Fcss%3Ffamily%3DArchitects%2BDaughter;fontSize=20;fillColor=#ffe6cc;strokeColor=#d79b00;" vertex="1" parent="1">
          <mxGeometry x="114.84566441106244" y="204.25382330131038" width="22.901669879772726" height="18.856619478737343" as="geometry" />
        </mxCell>
        <mxCell id="jKpcpNzdO18rDiMFqW5U-37" value="" style="shape=stencil(rVfLbhsxDPwaXwlJ1IvnNP2PAHFqo24cOE4ff18uFrJNenfaAr2t1xyJ4nCG2g0/vO+e3rabFN7Pp+PX7Y/983m34U+blPavu+1pf9anDT9u+OHleNp+OR0/Xp/n329PU+T09O34fVrh54yTRiFMqBR+zW9SpjK/+TwDDvvXG0DvVMQAOFBrAMDU7A5ciOs6oGXKzQDyZYlFQC0kxQCKphQBIFCpFlDhDqVQtoAaicGhs1CxZ9AkawcAppgtQKjldQBXipaHpikJAASfUkvUAEAboXcLqBQKII44mXjpJKBIWhHbGDGE0Y3LR6BuWRAZWy6fgJI9wNTtoC8iBcuBMDHIJ1CyfXcVx0q805pqAykh+IK2ThE0UaToGObB+Up9nNCaZgjqmSnYetZGgmRDPfn4DHq6UWEb36FoZLB5IwHkXTFQdAUtkDAFNJtRDyPHVYBVZdci4JSSBUgYXb5y5mQ5k0IRuSl126MqygR6oo4Ou9FYB6JXs2Yfj3xLPedOkwLWj5Qtx5KpgvwD5eLrmUA+l46/ISwChrWF7PpNIF/Kpq2PthzyuOQ9Qnsama4q3GmsD0b+S7wmJBaQ8xiGywAZnnkBROjSfGcTGVM2rWd9mgUPVzUWB6jwDIVHzS8AdWqwQ9EmdjuEYZbLMlMvtTqexi3oax3WbhhEPPx69ExH9Xt0s9OaWGn2scKyE2VqdoMw5slyfBmXsms8UoLU+/gElKBGUu31IFJC+fcxLC4UUAdtp8bmblwFTkuNr+6GRhUoTePF5f+nYXN3oYg8On1ti+4ASjoYgNMFy+WkAwiR1v3EVBbQISb7dwCVGgb82xfLXwD04fqB9LI/HObvq9v//QeVvpo/xvjxNw==);lineShape=1;sketch=1;hachureGap=4;jiggle=2;fontFamily=Architects Daughter;fontSource=https%3A%2F%2Ffonts.googleapis.com%2Fcss%3Ffamily%3DArchitects%2BDaughter;fontSize=20;fillColor=#ffe6cc;strokeColor=#d79b00;" vertex="1" parent="1">
          <mxGeometry x="116.13511596044259" y="219.14022446970728" width="20.722184874018012" height="6.885413292080216" as="geometry" />
        </mxCell>
        <mxCell id="jKpcpNzdO18rDiMFqW5U-38" value="" style="shape=stencil(rVfbbtswDP0avxKSqOtz1/1HgaZLsKwp0uz296NhyDFp+2wF9pbYPJZEHp5DDfzwfnx6OwzBvd+ul6+Hn6fn23HgT0MIp9fj4Xq6ya+BHwd+eLlcD1+ul++vz9P/t6cxcvz17fJj/MKvCdcKVTeigvs9PfGO8vTk8wQ4n16XAE8lagBTA4BaKDYNyNQiAATioADBUaj7gFLIsQZEcmCF4inpM4RKDqyQc3/dARwoBwBwVIoGFPIgSylT0YeOnrgBAFPQZ4iJmPcBsVJICpCklB4AAjVduFT6k00AV/I6S5k7WbYBkaImXxaylH1AkCTqQ5dIGWwpMEWvARWm1QuX9KFr6nTcrjQ1zb0mWQDxiaqJb3BDkZKumneOHGCS8GK1QAXc9rbKEu/yfryjpossEpIBjaR3zfcTLNl8ujmeKYHzOksJUagAOOT66nOBW8/YTn6y3o8IGhLIQEXnp+auNjsFtoTL5MH+k+2Z8ftg//K22P0n8P2VXI/5QfpOLq3yD/ZT+9cW9Y2Ab6I5uoNH/iQUb/kv50XaTkEL78h/WK91v1SQT6acP9TAYn/VLhBBg/lujksFAglyFE18JoYNYwscu5P8Y3yA53Vd8heEw4IVTHztLfR/4oNViIInHN9sxWReKNiVzMAiRukRYJ6YZituUCRYNFOzLombA1sS7zY+Fkt38+02EGvXK8i8gPo+tt6280iU4HQgEw7rFdh379kGlH7Eeawr0DryyivHyiDAKksec0nGEzv8MiR3le4xctf1bzs+2clUqIfUt9nxfa7j9rifbJnFz1G82E0w8SijIs7sbDwQF9E2F018BLyWeDNXezjpi9YaNfVw5pV4IxYM53yJN50ciUETLMxi7mRof3c3uhOi4Xg7H5BHBW79fHeCBkBQKUBaXTCRv378Rvp3gPy4X4BfTufzdH9evrcXZnk0Xbb58Q8=);lineShape=1;sketch=1;hachureGap=4;jiggle=2;fontFamily=Architects Daughter;fontSource=https%3A%2F%2Ffonts.googleapis.com%2Fcss%3Ffamily%3DArchitects%2BDaughter;fontSize=20;" vertex="1" parent="1">
          <mxGeometry x="115.30379344393918" y="226.21283276477664" width="24.485247379156817" height="14.493839560447668" as="geometry" />
        </mxCell>
        <mxCell id="jKpcpNzdO18rDiMFqW5U-39" value="" style="shape=stencil(lVfZctswDPwav2JIgudzmv5HZuLUnrpxxnF6/H2haigboLSdvMnyrohjsYJ2/PB+eHrb74J7v17O3/e/js/Xw46/7EI4vh72l+NVrnb8uOOHl/Nl/+1y/nh9nn+/PU3I6erH+ef0hN8zr1XiOrGC+zPfKZTTvxtfZ/zp+HqPD5SzwntPpW0TahkIiZgBIVDVEflGvm4TSqGgCYH7mesETy5pQqXitwk5UmJF4NgfsUpIUlWnCY1SAIRAXp8QE3m3TYiZ2CtCchRBDtGT10mnRBWExJlcUIQsjwAnsAhB55DlBFAlqXosmtCogaSlr16HJL1HfRDlBF2lyuSAljI1fYDMRwZilQR1n5v0uYAuUNJ47xw5kLJkXOwBFSTgqbHFB9A0N+ArOZCAo6CnuWVKIJ4luwUfYYvdkC9TgPiiVd089C/5t2m8jA1o8GBGtcHnx0FwjSKIP3VbuMNDK1qJP4F4xH2drQ+a+mp9SOrPyN4pmPpj3yrUotVPAXoTbx/0GUD8uavlTv+MbHGIp3UL2JjH7Ac80H8gDhYfQT39Sr4J6j+a+As0aZlHg0/dhLfwwzwWoDdn9SwLg48oXzb6cXCdEHz8FJ4p6gOKvNcQYVBocV3jWy+lqkcyMxx50XTSnpJaX8LWNRfsay9FODQ8bERRXAt0IYZexIUgCw4am2p9hWWFAjvXLeKFwH2/WB/kcUmTrEDSudhtYjJ7kHRh66Ve3ANIozQr1mn3RWYauzfflusCGi3eb/ZMeQAoqsyuWTNl/EDXxGudN3g0nJM3Z4NHy4p4j4nfwZdBG94eYmegnoI3oybrC6pP6yvx0jDKoP6CL+ZLghKqz+L9i6ixubthHYrQfadlTxc0db/fTNh4UX//bOFNPAVuf5/+WvwvXi5un6Yvx9Np/rK9/99+ysqt+TOYH/8C);lineShape=1;sketch=1;hachureGap=4;jiggle=2;fontFamily=Architects Daughter;fontSource=https%3A%2F%2Ffonts.googleapis.com%2Fcss%3Ffamily%3DArchitects%2BDaughter;fontSize=20;fillColor=#ffe6cc;strokeColor=#d79b00;" vertex="1" parent="1">
          <mxGeometry x="117.1786192557961" y="239.28439973058425" width="22.53380967691055" height="17.5433960514697" as="geometry" />
        </mxCell>
        <mxCell id="jKpcpNzdO18rDiMFqW5U-40" value="" style="shape=stencil(lVfZbttADPwavRK75J7PafofAeLURl07cJwef1+qwspayprCb7I8swc5Q1KDPH3sX953A7uP6+X8fffr8HrdD/JlYD6c9rvL4apPgzwP8vR2vuy+Xc6fp9fp9/vLiByffpx/jiv8nni1UOGRxe7P9CZSTf9efJ3wx8NpiWfi2OG9JwcIJVM1hEjCgMBUQ0dgR75sE3ImST0hUkQETywdQTxF2SakQOx6QqYCCDHbHYIu4QHBUfR9GhyJ2yaM6+WekNqbuwQp5Ps8JE8V5EGYQukJGmiwA68unXUJECXmFvWZkOEdfKHUS6N4ShEQQhPzTFBpVJAHCn0a1B8M1B0o9+vXCrUqLeQLfAbnUS/0OfDOkQO6YHJiNyhAeL4dd4FnoArVKdsACVhfrWsCmsmDFM+3m/Faj+D6xpk1UAIJcO3fGS9QEH4lCG4p34g/V4tnKAhTTkc8uG9o0VvgUelSA2R7X0aVi2K08cT4YtaP0POKN/FPlKAho8FrPwH6jyv9FKif0NS+0H8C55dWlRf4iooiSVjhgb9Ub9HiA9Cbo7zyI6qIbnXfTPEhP6Z2oy2/r/zroB+D8YuWSBD/R/E6nRgB5QoLxDid9BnIqdWY+4TaArhoew5ITjVnaujYWEHOuFqTJTU9SIJESmY40KoLXBY85V6m0cMohWL7TNA90YATbOuWSgKOlLwdDnQgQa0yzZ16HgMTDGsOrXMtB03gzVxt99b5IqFRVrVv3NwyeR9f18N4BuuPXuzxrpWPLXxJBu+BjrQ2BDF4NHxo7XH2PA6dp1hzOtgstRY6i0fNY6ydfbXwsJndhrEbHjWbW+2fFdRUfr9UuFU5lTZfbG1Q+gMFOD2NzSsafMEBNeNKbBHbSthjX4v/xevD7dP07XA8Tl+2y//tp6y+mj6D5fkv);lineShape=1;sketch=1;hachureGap=4;jiggle=2;fontFamily=Architects Daughter;fontSource=https%3A%2F%2Ffonts.googleapis.com%2Fcss%3Ffamily%3DArchitects%2BDaughter;fontSize=20;fillColor=#ffe6cc;strokeColor=#d79b00;" vertex="1" parent="1">
          <mxGeometry x="117.48217320642834" y="254.38996428034568" width="25.127614481700903" height="19.016076650549735" as="geometry" />
        </mxCell>
        <mxCell id="jKpcpNzdO18rDiMFqW5U-41" value="" style="shape=stencil(lVfZctswDPwavWII3nxO0//ITJzaUzfOOO7194WqUhYgaTt5c5RdEtcC4BAe3o9Pb4fBu/fb9fL18PP0fDsO4dPg/en1eLiebvJrCI9DeHi5XA9frpfvr8/T329PI3L89e3yYzzh18RrjTiPLO9+T18S5fb3w+cJfz69LvFMvio8R4p5n1ATxagI3lEBhNLIG0LpNm4TPGXtQgjU/D4hJ6pFEaKjBAipUTCEQiEAQiDWPsiX7PYJcl4NmlD7nduEaPOWPTl0g6OmfciRat0nhEzO3NAogRsCEydFKIFq2idIqVWnCZVcBATuLnZC9eR5n8CJmjapFniD4HUaWoXFGu35oqcMCkMC4rV6nINpk9ou9gIUU6bMFs8gy7MWFw47iPc6Ay1TBgF1NmMtwQQ4YuNvoAikKfab87nX+U58kkmw68rbiX8qFs/AnkBFJ7g22Itiz+bifA/ym1Z40QTwV7Kj7WmeAqi3YkUv8a9AYcU2ujb3+x17qsHLjahXd30v6jOA+kzdu0X9BzDP4ur81lvATn7dSvANNAjeaBBoXEo2V/5GYL+jkGw8GdSP6NHUf6IE9e5Wemzw/H/WLuoN6VfWCVOfDIf9h/HRNsQikkBDSfStI1SYClDYuDBpQq5dFNsl5Oysl0mcgQ8hdQnOBBnmIGmR7WBNmQowKSYquoxkX0nApOR61c8bUYN9JUlZah/iLKVt4cvCpBfNcSEBTheRgtkbG5SOFELVPozTFmhflo2mw8qZGNxQa9fWXK0wDTJLgw6SjDfQfAVfisGjJEhv8M3gHciy4E23xsvKvTff8QwCKvhq8RHhpca8wTdkT7MvA4Yb7Lhb6fj4vu5sNxe3Wm88nAbjsDBFTQU7bPZFeWyBXiT4ZN4dsBV9+PX3X7z8uD81X07n8/RSXf7fPk3l0/SsDY9/AA==);lineShape=1;sketch=1;hachureGap=4;jiggle=2;fontFamily=Architects Daughter;fontSource=https%3A%2F%2Ffonts.googleapis.com%2Fcss%3Ffamily%3DArchitects%2BDaughter;fontSize=20;fillColor=#ffe6cc;strokeColor=#d79b00;" vertex="1" parent="1">
          <mxGeometry x="116.26404610374084" y="266.3795822580778" width="27.35526213784351" height="19.38462555345177" as="geometry" />
        </mxCell>
        <mxCell id="jKpcpNzdO18rDiMFqW5U-42" value="" style="shape=stencil(lVfbchoxDP0aXjWy5etzmv5HZkIKUwoZQnr5+2rLeLMS7Gn7thgd25KOjuSNPLztnl63m8hvl/Pp6/bH/vmy28inTYz742573l/0ayOPG3l4OZ23X86n9+Pz9ffr02Q5fX07fZ92+HnF9UalT6jIv64rlVL+s/D5an/YH5f2TDEZ+yBj5S6gJeJsAZVqXQfU6k+IkboAAFMoFtAohXVAEeJoAJIolXVAzhSbASSmBq6UKjW2gIIBgaKNUo5UAEAKsXU6VyrAB4ne6RIp9nWABrE4QCEBmY6ZsnVaM8PohEhifahCAqgRGmUH0EuCK4XsfWhCFYRVXajGvlecN6q2enqnAKgn1LK3b6Dc4jh9Yd9RhO7sj5gdiG3KVA9QBpjEFkJXXkdkz7aWe4L3V3vnr9YqiKfex/kbKIB4MnVLoNZHxtfiaePTGoxnpGrj0yp1EB+5sz/yV/mWvX0F+yufxfvbG5BGryoazwLiWYaELPKVQXwKBWevNwT+5tEqFvUojOzZ2Wt8gEAkCo7PnQrgg1Cw+wfmUUIrhHAAPaACe+0D5cYBoKFMOd8ECCRYe2X0CSiwwLxACGwzOh4ETyCUAB5yPNvzmBf+3R4JHN80pZmD9wEy4jEDIiUQUR1nHKDUoUr3KSGedFMnRhwq4wJzr29QRWXuuzMgQx8+5p8ZMBPxPqD7xqcDTgYn6N/JElVHKKQsWaXRnqCXREwtYVxgMQZGBGhefLX6OqBGzdRc9RfYLVv0w3UIUC1UzbubuaDcTcVuucfQZbV3/Qmrl4qPkyOG7WkSK/H3AdU/TUvZ2RfAIrXP1t8wArBm7/zVKRjv37Oz74CkC/WfWTo4snqAHYgSlPfJAVeYUH6ncc9pCyUwH0wJsISr45mwluD/ey7+1V4/Pt6mL/vD4fq0Xf7v37K6dH0Hy+Nv);lineShape=1;sketch=1;hachureGap=4;jiggle=2;fontFamily=Architects Daughter;fontSource=https%3A%2F%2Ffonts.googleapis.com%2Fcss%3Ffamily%3DArchitects%2BDaughter;fontSize=20;fillColor=#ffe6cc;strokeColor=#d79b00;" vertex="1" parent="1">
          <mxGeometry x="118.31984846963383" y="279.4173032995302" width="29.266340759637842" height="15.216335178884037" as="geometry" />
        </mxCell>
        <mxCell id="jKpcpNzdO18rDiMFqW5U-43" value="" style="shape=stencil(lVjLctswDPwaXzEkQRLkOU3/IzNxGk/TOOOkr78vVJeKAEnbyc2PXYkAFsBKB755fbx7OR5SeH27nL8ef57u3x4P/OmQ0un58Xg5vemnA98e+ObhfDl+uZy/P99fv7/cTcjp07fzj+kKv668LtTjxErh9/WXRj38/eHzFf90el7iI1U2+Bgpx31CEyr2BpGpVEBgiu4OhaTsE6RRbZagQSVAyBSSIaRA3PcJtVMJlsAUQAy1EDtCoQaOVCMVG7TWoQJCaZRsWlnrwICQqBZLEAqyT8hCuRpCZsoZEBJFG3QJMEtcqdugi4yotglMIoageYvoDoFyt4RCGaQ16ZGslkRjAGlVIbhKq7oKUKtKLdjCqX4b6LhYx99zh6r4QB20v5rNUpsTvS0NEnui3kbPbhd6SHnG95Hm7SqQNI//l+XtFFHtKzwomo4k8XgG+ECNfbwJJDRQsp3TK6yYVtgWrBeK8PqubzputEAlW3ykBvIZKbn8BDhbEiVb39ZhvEypezzSQyYWjxcQrw7T7M+P9FkpRp8fQcOXSvP5T6CF67jajM/Uwfmr3x6qnwrOX6jbwav6DCCfs7oW+k8g3ryBR/rRcWP1H8Ms8R0B+QbQBQpWTRzhLQKusAGyK7AQg4QGH4A2pOAGdgMiw3jVPbjrJ2LYkD4/EV7/o/g524sVg0xdTN6jSRkzaZug+bMS1TUpQKKxe1NXK0yRasjFUNNwbXub2xV5MhNoaq3GXO7YfQg12zdZNw9wH+qXoo2B1X0gy7WKQU0dso1q6qKtQ5ors00ow+jOhDQeALYJ3ffC+7raHnazM164cUaElc+M6qBA0LIKWh9BkPhEVv1DCfihFv2JhCLQaiteGAXidX25ZmA4r3VdsG3PMIS1jV/Fi8e14mWFB/nU6czV4ZFfUXx3CwR66slOZodHXaB4ZzDTeE7Yw3fXl/D6i3U3dz40pNM+tQnSlY4S2scT8Tzsxgn38M7hCE5QG48k7w/5aA59+KXAf/H64f0NxMPp6en6AmP5v39joT9d33bw7R8=);lineShape=1;sketch=1;hachureGap=4;jiggle=2;fontFamily=Architects Daughter;fontSource=https%3A%2F%2Ffonts.googleapis.com%2Fcss%3Ffamily%3DArchitects%2BDaughter;fontSize=20;fillColor=#ffe6cc;strokeColor=#d79b00;" vertex="1" parent="1">
          <mxGeometry x="122.10334994541222" y="291.1974025503082" width="27.696937384377634" height="17.69848583346129" as="geometry" />
        </mxCell>
        <mxCell id="jKpcpNzdO18rDiMFqW5U-44" value="" style="shape=stencil(7VnLctswDPwaXzEESILkOW3/IzNxGk/TOJOkr78vVA8VEZK2zbGd3hwHaxILYAFIh3j1fHf9eDxIeH55On86fjvdvNwd4ruDyOnh7vh0erFPh/j+EK9uz0/Hj0/nLw83l78fryfL6dPn89fpF75fcK1RlAkl4cflm0xSfn3x4WJ/f3pY2ieSNNhzoBr3AbWR8AhQCggglOoAEKHK+4ASqZQBEJkiOEENMPqQArW8D8iReATkQFr3AUmotAGggRj4ECOFMQzaKIArSSINA6AoFeA0F9LxSkY0ChwL5TgCCnEDqUEyHtACCSBJPamWWwxcTv302V6pIoqojZRarqMYmL/Z26sge3//Rg0RSsUVQggUAgJI9QfUtG9vhdi8fVJkn50DlSoIWOjKsLBn4LB55+5fSEDAZjYWAY6An+BrpmWKkJ91wiWQEIGijvaRMuRHnb30iGwX/cpfpgy0N1N2v28RAQnauiDMBVwpgPtYxceRoKrUAKGcvbbXTBVldKHmRMh0DJwgs87OgFm8twHSlXwhcwpINVZ5zOrKlABLUr22lwYB1o2cMJYChc6aQRoDXVJPrW1A9g2tWAMCcUiR4hg4tVJD2psoqAdkDHBX0gK7QcqeJa1QvQygY3pby2wg0mnNEsPkm04YWbJRAwnS5MOYfBa4gpxOvimXDHvIFIdV20dNyiLtr6T4StYG2QMiSO/EVIv3ISOWuP/egiU0WBiA3ZUEO82+85SAaeUe10UuRdAaDOC01dK7oSuttNUKCALiRsUlXNNVVgB0QvID3nQlXKLsABWO8gZwE4bRmnDFOVqtRAOuadcfJuXDqrFOvohZqqsSzShbVxuSFRB0OvZy+dMSfSvA+kMaU2PqomgdkZ4Ii0mAQfLZrNHc6GDqjdqu9rguhhmkrTYtFTeeM6R1Gp/dCfNGsz2c1NUJJvfABxt/mhvI8DTDsff9xcTaQBxst86rEZpBturGygDj9n9H+gd2JLjD/N07Eveet6h6NP9H//vVEhTwqX7qrAXmW+1sLDYexD+zFxXbRxBBrD2/ZnGvvaHsCqPbFgSvF/bv8QRNeNJmv1NlPOFl8VWZtE8z21GQXrTzIzyFXdlcrOOVLJJozbOlzg07JvdI6ax/+eeWjJ+MRr9Iaq+9bfvVAaHn4p59as4ejUZttadiJTUhdFIU4NOC6cmxOnukLFOn8P6iSp6EfCx9hsr42lle7VEnWHSWOYdgVk8HjITOEd+1F2dfUUI0/xw7wYHf7LO3b9j+bY/6f2tvH17fK9ye7u8vryWW//fvIeyryzuM+P4n);lineShape=1;sketch=1;hachureGap=4;jiggle=2;fontFamily=Architects Daughter;fontSource=https%3A%2F%2Ffonts.googleapis.com%2Fcss%3Ffamily%3DArchitects%2BDaughter;fontSize=20;fillColor=#ffe6cc;strokeColor=#d79b00;" vertex="1" parent="1">
          <mxGeometry x="105.08315589382278" y="307.4340750586384" width="45.47998875707617" height="20.363437197941266" as="geometry" />
        </mxCell>
        <mxCell id="jKpcpNzdO18rDiMFqW5U-45" value="" style="shape=stencil(lVjLUtxADPyavapGo3meCfkPqljCVghLAXn9feTaGoM0dhNuu3a3x9JIrR4f5Orl/ubpeIjh5fX5/P34+3T7en+QL4cYT4/3x+fTq/46yPVBru7Oz8dvz+efj7eX/083C3L59eP8a3nCnwuvd5K4sGL4e7mSKF8ufL3gH06P7/GZEht8o9IAPlK3eGaqBRAChWwJmZj3Ca0SB0toVDMgCCUbcozU0j6hTjmKlSIIumaKNgZh6mgFJnaEQgmsUKrPUgpUwb4VoWizlBK1sE/I3WcpNWpghZypJEPIkXIHhEjRETJVkKWkr1QsoVFGhELNFl9hCqCWNCfRrrDkrQICU3METQPIkmgtiSVUaiBLWgi9WkIfUW0TtONsaVQZO7NNWCtnJWTKsk+IZVT/StCoQJaiULOv1JgEiEDU290ShAT0tLa8k5mWR6K3Cdpfdh9URwRsHIuvpdahUqrOOdXoDBtIhmqt+D4aZAcfmsejwogktt04qNYCCeDRvu8XAPhAPX4mgEDJSlJvsCrCFHCFzblGt+ILBYhn28s9wdYMlB1ehhrs5JOTxwcg8jym0oqPsJH1bvD4DJ4vXoqWYQ32V7yw6Puj5ydvFTSfUK6puOdn6C1mfIH7Nb9PowA0Yo5XVQbnc6r/glRuo7/Q87UeZMKDhtd6m/AJ9lee4kX5n/uljh35735MuH9dv+cP+t3rSSKG799dfnQHQT5nfcP4TsHidSZlNMTYF7ROvQAKmtMYuyshQHOtU88N4tqgpPNkV2qBXlmLrtqirlhEtSudMa1xOJ4995GdXdFCB3M1Nj9Y1UGhOlIH1WwMauqQsEulbGMocbjnPRfoTZ0WL5LGSdvV+jJ4paSHJrtCVteGrG8d5mQlJJjWrKXmVmAo78vzbC3piaKCV8rVm2uNCvWDuvviCAzPjmU1uuu5az1YbRPU89kZIh+cHfWwaWtJy5FBDLX6FXSuRLDTaqWT3Qc1w8i+qwoFdyRPQzm3CW1k/c05wsNmZ7+CBgUaTnW0usPpuLCNr35SBdhuvfqGDsOKbeObP79jo7zMSfkMvvtJGMb5fw8v/vkJ7PDiO9jhG8a73md4Flp8R3H4hoxLmEZ/hJ83lgXc9xDolOcA8JF3SZAvOMYJ+txXsg/x+uPtk9zd6eHh8kXv/X3/CU8vXT7/yfU/);lineShape=1;sketch=1;hachureGap=4;jiggle=2;fontFamily=Architects Daughter;fontSource=https%3A%2F%2Ffonts.googleapis.com%2Fcss%3Ffamily%3DArchitects%2BDaughter;fontSize=20;fillColor=#ffe6cc;strokeColor=#d79b00;" vertex="1" parent="1">
          <mxGeometry x="118.42176414151663" y="314.3752588279949" width="40.20725092307248" height="25.292099964295176" as="geometry" />
        </mxCell>
        <mxCell id="jKpcpNzdO18rDiMFqW5U-46" value="" style="shape=stencil(lZfbbtpAEIafxrej2fPOdZq+R6SQgkpDROjp7Tsrd8E7xn8UiQtjvvH+zNlTeHjfP73tJs/vl/Pp++734fmyn8KXyfvD6353Plz0agqPU3h4OZ13386nn6/P8/e3p0a2qx+nX+0Jf2Y7EYquWXn+O98J1L7p5+vMHw+vS95T9AMv5PI2XyPxyLsCDyiFQhgMVFEN2wa5Uq3jP/AU0rZBki6gG0RPDhhEIU6DQVIv1G2DoCfIYJA9JQEG3J3YDYojAW71+vMYtqqPiNsGLpKMkmohB9xaKY2KJPTI3z+AKo+8UAE+chSD5aUgnuOKBy5lysXyFejnnjMLPjHinbc8gyRi4jFgoh6GekzdSIH+4Z7CCz5CPZEt/1/hBl9MvDIVwDtyzvIJ5kNiy2eQn5pv2fIVFIC/4x8P9GsPiZYvIB+87aMaXw/1hGz5AvJZ9Y/1K9cms+Ef0yCUz9j/2fIC/e/G+nKsKQsLpqz+gEA+rgoyw4K54yCY0BxWAYB6mC2PpobyRk+hDPWEVUGijs79acsCgPo/x6/msDBVlHDBdgid/ShgTZEZethDOpPqmHNZYI8LxQ69rFEBRRC1xkdJOvsFBCGVXiTX5UPgpM+ld8HreqNzEvT1km2ettIDJ1RPxWxckRJwqzhbORl2lpb3Y2tk8iAKypvWiINwq8MFDxK1Dd4Vj1ZY7QvV8KiQ2yIQDB/AbtYWH+ufjPk6+t99pF+q4eFmxqvW5eBG3Q4YW6/HAZb+uBuPRndr5NHwaNn99DvKh7xe3F6IXg7H4/w+tfzdvkDprfnlKzz+Aw==);lineShape=1;sketch=1;hachureGap=4;jiggle=2;fontFamily=Architects Daughter;fontSource=https%3A%2F%2Ffonts.googleapis.com%2Fcss%3Ffamily%3DArchitects%2BDaughter;fontSize=20;fillColor=#ffe6cc;strokeColor=#d79b00;" vertex="1" parent="1">
          <mxGeometry x="118.35358764344278" y="335.4350640823245" width="46.21147653048433" height="32.60803080150481" as="geometry" />
        </mxCell>
        <mxCell id="jKpcpNzdO18rDiMFqW5U-47" value="" style="shape=stencil(lVjZctswDPwav2JIgOdzmv5HZuLUnrpxxnF6/H2hemiLoLSN32RpV8K5AL2Rh/fd09t2w+79fDp+3/7aP593G/myYd6/7ran/VmvNvK4kYeX42n77XT8eH2+/H57mpDT1Y/jz+kNvy+8WimkicXuz+WOEPt/N75e8If96xwvJKHDF0phHV8KTc9meK8fqIDgqRpCoZrXCTmQ+I7AkTIwKV0fX10WCm6dEBOl/gvBt6gtEkKmGntCJRZAcOT6L+g3GfggTLX3ITEFEFbO5HJPyJQjIHCLSSNkJg8IU5p6H3KkCHzwiWJvUi4k6AuBSm9ScZQZELhVzpUg5EGmvSffd0OJlEDitHtKjy+wfbQwenx1lFAWKNYer4UE8ewtHkao1cAMj5rNE6d78M5mbLIHxNNRGOxn0GmOvPR4lSPgr/aZsSdTgfY7sXhUQI7YvD+RFISPvdhVFSfQxs62veLR+/0QzwjrU8XXDe8H/rKdBopH8WdK1cYHiQrbYaD4AupHFvKboP11qB8B9cCUh3p20H4Z+iuC/I7xr01V1/JrhqW7lvgnC6hSASKtBSoWHyDeClChAgI0NlhpLf3pBkYzYxSI6zBfE6ChASoUoPvw+rRvgKL2A3xu42c2kFB+a9sCrnhuErA28YIZwrUtL8sEsZKScxP5ZUJsDs72AjTzfB4WCYYmjV2QaivbZUKyVaE7oQNtqeuW3c+0bYDOicpCP+ijUMQroynsoOsRcDpqEPvESYELXQqUe5PENTVeLr1h1b/J6/Lq7qya6oqHpo3WvhmX3sEttrLd9SP0WcXEtKdrx5E1fAoG70DWJnGrFo+6s7ZpN8MDNZ3E1trvwXhSfGKDRyebaRuz9meMt4czHJ9q5Q4fnGbT60ZA+1mt9qSlGzDYh6ZpJwaPtGgKaDZ4tO/efZz+L14vbmf3l/3hcDn6z5/bs77euvxPII9/AQ==);lineShape=1;sketch=1;hachureGap=4;jiggle=2;fontFamily=Architects Daughter;fontSource=https%3A%2F%2Ffonts.googleapis.com%2Fcss%3Ffamily%3DArchitects%2BDaughter;fontSize=20;fillColor=#ffe6cc;strokeColor=#d79b00;" vertex="1" parent="1">
          <mxGeometry x="119.06735113348941" y="350.43422461914656" width="52.496361204430514" height="32.97970941653284" as="geometry" />
        </mxCell>
        <mxCell id="jKpcpNzdO18rDiMFqW5U-48" value="" style="shape=stencil(lVhJcttADHyNrqgZYDacHecfrrIcq6JYLtnZfh8wylAcUOyUbzLdTQ6xNBrcyd3b88Prfsfh7f18+rr/eXh8f97Jpx3z4eV5fz6826+d3O/k7ul03n85n76/PF7+fn2YkNOvb6cf0x1+XXiqVGRicfh9ucJU498Lny/44+Flia8Uw4DP1BjgI8Xx/pGppW1CK1TGB8RGIQBCpDwSWKjlbULNpCNBAjF4Qg0U2kgoVMs2oSSSOBCSUAJPyOqfkJQEhDVnijymQSgrIDDFNBIKKXiCHaC6J9iVCgiV2hjWwhRAHlIhziMhUQC1lxLVMUolUxVAiKRj8ZVGBSROWi/+TqiREniC1F6bM4FJwUtL7jGZCQkmTrgX80ywuIE8WDH/e8WZYA0ECNxIxtKoChtoavnxCVMPgrBaQxYdCUIMwsp2vzHTLZGC0ojWLmOmrzpym1B9HlojBnmIyddSU5hp0zlXrTor1W1CoDoeSQUmTv0raKKCEt0lZcYrlLHYlX2BVxQikrDCg/MEanF1HhCgQGmFZyBhwY8ebb2sNvCul23YoVFl+OTxAd7f6Z0WEoh3k1Bzj9hG/H09ZChec9Mu8KgF2A8pwwvE59V5kFxzH0iL+EClo7iKpyJ179WyyBfyOuJnrNVPQjLnZdHqM8L3Tc3jC6g3XtWn9RfAR3//GAK0UqG36+IByNwFyuLxyObMNmsRUFTQdtpVAgIouNDtwyLBAhJgAuEShoeGCZCLj1lJ2MBNPT7D83wMX3u0Z7yNEBAf9QPARhiKZ7QKckOy9pq6TTATOmbAxjDygDGvnIF5Z0SoveRnAuOhF7zxNbOCmsDajMcjmR0SUKWcvM7VCi0dF7+A2ErSQFgtcU6JzDQiZZHYhXlhSxlJne0njhCwLZ1Hy2ytFYbVnDI78157O215cXXrwbwwbLn9NmZ62ifQerDeJyIcgLaxuFXTdqKECM33Q8YNlKOXsJzg1mX/dhppt4CrZvU+1ha3iJbZ1Zi1QDMYO7ZjuTkuCa4HVsxu1TRlQ0azBe80bdYVUN7NjMqo3CY8FUw2E0ZXS+bOMyBM1mYkCPReNslcO9g7gRhN1jU4fATNYHh3ngB7wfCqHg/KaLLeq/uj86ufnfiby2SFPD6h+K8SFuAuoerVJcL4LKzTlYD67LorXfGokSe8a4Iu+psv7HqAEujKD3/o+y/efly/Kj4djsfLR8nl//1XSLt0+YIp938A);lineShape=1;sketch=1;hachureGap=4;jiggle=2;fontFamily=Architects Daughter;fontSource=https%3A%2F%2Ffonts.googleapis.com%2Fcss%3Ffamily%3DArchitects%2BDaughter;fontSize=20;fillColor=#ffe6cc;strokeColor=#d79b00;" vertex="1" parent="1">
          <mxGeometry x="121.12452502045039" y="362.4293039283507" width="54.44409516374617" height="37.19776776880599" as="geometry" />
        </mxCell>
        <mxCell id="jKpcpNzdO18rDiMFqW5U-49" value="" style="shape=stencil(lVjJblsxDPwaXwmK1HpO0/8IEKcxmsaBk25/X74aUiw+vwly8zLUQg6HpHZ68/p497LfCb++nY7f978P92+PO/2yEzk8P+5Phzf7tNPbnd48HE/7b6fjz+f78/eXuwW5fPpx/LWs8Ods1xqlvFgJ/z3/IlTD/x++nvFPh+dLfKI44zMVBXgmjhM+BMqybVAzsc4GibgCg0AhzAaNIm8blLS6ciRu2wa5Ua2zQaUWgUEkTZOBKuW8bZAayXxprRTADilSapNBDNTQDkxp9lJMJODSMVNzBpUiYEbUTpxukAIMnJ3YUSMpadk2MJ/E2UvJQgm4pMYld6RCGdzBwuSoYZGpgN5qdyhzOggFQD5jTnIGEbrV8st5Kee+xHUDpTJTI1fKgEtiCTmztTDVtG1g+ZXnOBShBiIdiqeG5SCjHTIFd6QMMy5EKnPgSqWKDLR7vRtUhsIXhGTeoUqXhesGTG2OdE0UQOBap+bAF1KQ0pYNMuM/0D1/gRb6Ctd54UXMagVKz+Dva/gKzhMoOaFnKxbQgKvfoAEWcdfcC3yGeBWPRyLMvWoMvIUEOGjcbuALFUA57jky8DgJmGSFF4h3YmfFPQNGrwhteAXiGHyKGV5QilFdnUdBvFYZafgCCe3vm2EJFCrOnwXyU7zwLvFFSk15xZ8E/CkUVwkZ4PkDezyKb+j/XuYXEKDgm5YFD87DK/80KpBvTuAWAQL+YV80zJ8f5JfjZ+kM38KLxyP/c5f7C75F4E9exTfBOvxZvGXT7P9aYUHKq4JkZRnEy6q8Wz/2iGwUPHHrC9Rbq6hpboWKEQ4kvI0azTUqBfbhS1cwp0zBkrLMJs5gtF9bnU1xBkKMjlT7uHTRnTFSFfayYv0fo/5PelUZBgn2TkYkJ7xZYZdszChuh9C19XpbzX4H68NR6qh0pb3o9AVotdodZrGzWYJBpLX4amDTCoNLR+7d0jBgKKc2QIU50jZxFXAHG9FcAsUMIx1bj+swkJ6z1xVDe36NubRRQhJT+0A2DBKMtDHHDR82Ugnwkg3jTlVNp9AQWKJvK5ZCh/pqC9xMDUta1GfWMUkPAyvtIHDWqPvOpYf+ulBGrwERkrtVLzIMC5XhnXIzHM+WvsOvjxqjpW4Hj0ePRs0/VjAuJM1LHsPGsY2h/h2PngWWviY6PKo7733QIAQJmpx4NRqEPmJvbpAdHnVey4X9K5/iCxd1+ITX/9wr4od4+/D+ZPlweHo6v3he/u+fOO2n8/Oo3v4D);lineShape=1;sketch=1;hachureGap=4;jiggle=2;fontFamily=Architects Daughter;fontSource=https%3A%2F%2Ffonts.googleapis.com%2Fcss%3Ffamily%3DArchitects%2BDaughter;fontSize=20;fillColor=#ffe6cc;strokeColor=#d79b00;" vertex="1" parent="1">
          <mxGeometry x="116.85209757470852" y="373.43423930183735" width="64.71165785971607" height="37.72951164447977" as="geometry" />
        </mxCell>
        <mxCell id="jKpcpNzdO18rDiMFqW5U-50" value="" style="shape=stencil(rVjZbttADPwavxLk3nxO0/8IEKc26tqB4/T4+1I1VvFS1hQF+ibLQ4nHkJzVJj687Z5et5vAb5fz6ev2x/75stvET5sQ9sfd9ry/2NUmPm7iw8vpvP1yPr0fn6+/X58m5HT17fR9esLPq50qFZ6sAv+63gnU2p8bn6/4w/54i68kccBnqgHgA3EZ8MJUyrpBq1TCaJCoMjAQanU0UKoghJp9CFMM4A3FXEqDQQwU67pBVlJnoBRB0Hl+XjdIhYKuGySLQccyWN1k3SA2aqNLuZFGYBApjC6VRBFUOrROhNnA3gCyFBK1MYYaqCZgIFTHwlkpUQxiDuTRoFEBLkmh3AYDYxeDOhg3Xfs0yxvgkgQfdEswSyKUxqCbOQkMlHiMuSllkCRr6DFklc7e+1ztKZ/xERYhdNbMeOsF0J6yeL5CZlt+xoQKMzEqAXHyL1BAbJtXC4cy4ARTZI9nkFDz1hWgUQQJnaOb8RUW2PBjI2uBI5t94xse5ZN9C2julF3L/wLPkBBpJLRax2ACLZ4vaKz0SXuDzxnh3Yyw/AgY7jbUiscjvhne+VP73FvBF1evRhk0TPADxfgpgM9hwR+F61L8tpz6C004v8omPKgvL/KpMD9MadGPAdSXO1tu8wn9YfH1arBf2OXf+ADnic+PaQMcr+Nn7h36X/DJ95ctGKRVbNqM+TGJh3aqesVoGxIubQtgLJjt4Ig2RvATqAnWEdFTrtk7QQtL7gy4ER4ZzCBTKmFMUi2QpFY1HatWI+76ROK0EGM9V0nHoIsJDzDnTBTnsQ5lluZrmlTGoHPpy/w+85Lf9ZnhqsziZ2OKsDdNuQen3As1UAfLiZP6xt8GKl2TZ2uIcD0ZN8WdoCqc16YP20iNifCo4YSCo3cfUffxpUvcOUm9kPfxrZ/4Op57ltfwLTs8Egi6kLxYAE7z3/vDyH+l5PEwXjtTe38i9sdNC4aNNu1HcXh4Zlc/KwTm/0ZAfxgUHLC6IzjcaFPAYx/bIQERQv38DV1jrBbgnz5q/BVvFx9fUF72h8P1A8zt//6Li926fq2Jj78B);lineShape=1;sketch=1;hachureGap=4;jiggle=2;fontFamily=Architects Daughter;fontSource=https%3A%2F%2Ffonts.googleapis.com%2Fcss%3Ffamily%3DArchitects%2BDaughter;fontSize=20;fillColor=#ffe6cc;strokeColor=#d79b00;" vertex="1" parent="1">
          <mxGeometry x="123.34470866863126" y="387.4339781219603" width="65.2232047470277" height="36.25144792879723" as="geometry" />
        </mxCell>
        <mxCell id="jKpcpNzdO18rDiMFqW5U-51" value="" style="shape=stencil(lVfLctswDPwaXTEEwOc5Tf8jM3FqT10747ht8velqtAWIWs9ucnyggKx4GI56MPb9ul1M4h7O5+OPzd/d8/n7aDfBpHdYbs57c71adDHQR9ejqfNj9Px9+F5+v36NCLHp1/HP+MK71NcKRTKGCXuY3ojlOT/i+8Tfr87zPFCrB2+UNR1fBby3OG5BoT1gBSIc59QIufXA2Kk3H9BA3mQUkiU+gDvKbr1AJ9J+pSCJ+b1AM1U+qJGJQ++oI6S7wISUwA0iFI0ATVJsGlOFFMXkJUySIml/X0JyKSAh0w59o0h5BKggVh6fICNweR61mrrfn7xJr6WtFj8Jysr+BAX+IzwGhb5AMoccbL4ABhz5BbrM6h/xfd8lUwJEFzxYvEC12dT/3RnvxIt3sN6+gVeIL8xWzyDfnNUFvmj/fKN/XqIl2TxCeTDpMnWn0F9uCnIDB9hPsv+dKD/uVVjhkd8cTvdM3yC58vqQz1fkC+jcOwuLb7WQGI/kGFCohaPCupa+WZ4gQ1tBatKJBC4W3iF+VsCEhW4viwaOmCBKxav8MB/De+t8yjajsTKgNGer4wbrk4wM7ZzhE6izkjuWy7XKQw6rk5hoxHVvRSg6XXOszEGBY7t6iR8v+nI0Hr41OzbxaswlOmw2LSvdQNlrX7LCIUqFJbkW5tdHJ1v2n2baLbWozIjoLML29mdmrm4jS92VrrmatfwHA3e4fVNq2LlGp2AzceB0TcKlc1H8PrGC7nmytfwxeYTwcm8KvkVj6zWTMkvDEOpuFq3K/5eQn2Pyj0CzHDCZ2AsqF0/AGX58i3rLr4+XK90L7v9froRzv+3V8D6aro+6uM/);lineShape=1;sketch=1;hachureGap=4;jiggle=2;fontFamily=Architects Daughter;fontSource=https%3A%2F%2Ffonts.googleapis.com%2Fcss%3Ffamily%3DArchitects%2BDaughter;fontSize=20;fillColor=#ffe6cc;strokeColor=#d79b00;" vertex="1" parent="1">
          <mxGeometry x="116.3234501393988" y="399.43469927781143" width="80.24120404473297" height="39.69369161910981" as="geometry" />
        </mxCell>
        <mxCell id="jKpcpNzdO18rDiMFqW5U-52" value="" style="shape=stencil(lVrZchw3DPyafUXxPp4d5z9cZTlSRZFcsnL9fXpqi6Nhc7Y3ftPBXhIE0GiAe4mffjx++f5wCe7H+9vr7w9/P319f7zEXy4hPL08Prw9veOnS/x8iZ++vb49/Pb2+ufL1+vv379sK7ef/nj9a/uEf664UKzUDRXcv9e/OIvXP/x6Xf/89HJYH7N5P6331vLt9clbytP6aE58fiqW+7Q+WXG31+dgdT5PsVjE+mZ+trdZFJ9fosX5/N5ZjgLQLMUZoC2u0bKbAdmaOFJtfEW+yTtqwcJ8R3BaFDa0vACiNQUoltoMKBbUkaq52Wj4IWsAHSlqP7T9EncArqELQLIwR0aMVkVo41pbmQHJuvB087b97wgo5oUNtbKnY7XkZSz5OfhiG/nxP6M1dutN5kOZrzXtVp0D3Lj1HRDGnucZWq3MR0pxXMM5IFqiHZI1caTUrBEgWxc7bP+eHZf2+D0HgDXmfMCeTvghOatpBnQZGvCrm3kpg7iF0SDuOO+QvWUFCJzT4FrFSxGkMqdoTub0DpRxeSeecwBYiHZAuRApCqPLnKKIrp4EoFqdPZ37KADngM4ABLyiSqRLno0uQeZ0WsK76GtFCe2z0SWP6DoHwIbZ0wU5KI6EjCNuLbgllaKN86F6c5pm4rxDDVYUoHG0VvC5MBpU2WmHPFx5DugjXXZAHVroVkGhGofKrbQJalwnG7oMje64oDRnSdjQvRUCeMkaPYxA2AFhCKhzQGJ92FAxRGj0vNiQJfP1XVnsAC35eh2htgOqvqXKNNPaULHngKWKNjhO3RIq0EzGcGUR0dq7hTmn4UpV2AEgXd91AnnnOFx7HJ9x0xHzvcL5XTnCs4bDR0QlZzrXXZjlxQ5IMIo+AJTnQBIUGwBU1Q80C5EBTRGTN98ZoBRW3vPlCFDqBDVwMbprsZEWQFVio5hbjE7iSFuhXhwnK/te0nZAkzbgSKRDAVAZhLobF0BSGq4yVwKgKgrUTl92UFyJwk9VcdtBBV9fMq7pBIIQrgzICtBYnQBQVfe6x+bB006naF8yTikslOWSGVBUoXasdLcUVS17XDzdJZFBdVJOH9jzZsux5qgK17C4umv1XZcKAcEieAYpxwnRZTAhqctyJNXU/DQAfVZdCoQKJvQ8iVydJH2DXDsBdJHLy1TgTh0FgI3WlRo9j6MM0loAAOL7O2pjC1eSWFrPAECTjTuKCV1VJQF0dwxHnr6j+tCGVZrbaV2JNox4ZlOuCuB5DrdpY3FLAFAXtKlvLQUoWreeQhtNHTXY846n0+xp9CiyZnn2A+i2KV4qg0oPfZa6JdRdai7RyVWlHcqI/kOv6BWR+cFzh25U3VIoQ1oc+10FiDzDQketKso2kKUdkux3fR5T9+NUQBzJB2aNLeBVQzCY9zDYUGM4cAaNi/QEa5l4IRbVDMGPofhx9iPiaOlONipXF2SOzh9kZVjP7zXlcQyhFsmJt+VlwKfu03tOZQjSJijVJybtj1y9FaSdBq364QF3xGPQNLTZOaCN4cJhlKuiGqlMdQQ6SD3PxMzjt7Q7/hYdUcMX+5BmtwiPbIhwpSptfsTxYWgflGLIIzAPzwLKBmQuzX6h5ZoqbUujsT1tqEYjM1t8zGrPAWXZwY2AvwUgTRJ0Z4Ij5Tk0ticmkaBgXJoTbY9YyoYlNLZnMlVtK5fnjfd1aFCztD31CUAqXEd8HLx8K7w9PSY62SxtzwIk9WRXjDpCdaHId7uwiKQkZ9G+cKmNsiz4ZZweZMcQuYw42SQFTk2n+YvHT05rI24jnbQ183zBmVfvk/wW6LQEWZ6g3Jj6nK+P/DipW2B4lubnd9Z3fnnX50Gkdb58J0gRt08KxMlpDa6fGjs3Ou5bKvOnvllxfz1++Pgax7en5+frt0CO/+evfeBP16+MxM//AQ==);lineShape=1;sketch=1;hachureGap=4;jiggle=2;fontFamily=Architects Daughter;fontSource=https%3A%2F%2Ffonts.googleapis.com%2Fcss%3Ffamily%3DArchitects%2BDaughter;fontSize=20;" vertex="1" parent="1">
          <mxGeometry x="238.28364521774074" y="432.41711472670704" width="4.828435132693812" height="122.37684781104485" as="geometry" />
        </mxCell>
        <mxCell id="jKpcpNzdO18rDiMFqW5U-53" value="" style="shape=stencil(lVjZUhwxDPyafVXZli89E/IfVLGErRCWAnL9fTTZeBhpZjq1b8ugtmUd7ZYPfPP2ePdyPKTw9v56/nr8ebp/fzzwp0NKp+fH4+vpXX8d+PbANw/n1+OX1/P35/vL3y93k+X069v5x7TCrwtOhEqbUCn8vnxJVMvfD58v9k+n56V9pZaNfaYegD1Tt/aNIli/C7Vk7GOg0gEgU4kWkElkH9A6JXfiMJbYBkRKxQIq9boPqJmC3YGZCjh0aRSqDWqglABAPXZZqMTApaxZEgMokQTsoA5EB6gjM5sAVgcsoIaR+m0AU7aH1rih0mDNA1uAutT2AUmIgwUIRZBprc3cbbFGmIdUqFuXGo+4bQOyd6lptYLEJaZgy7vV4eQ2IFJ3gEYdRSlQdQAZ9bsJiELZZrqH0VLbgE5se7pHYnCGWCnZPHSmClgmFoo2rEoLDYQ18mCtGVApIJcSZRul3qgglyIFt0MnAVHSqFrSkDAaZJuWSCwFSIJp07KxLKbUXEF/rkIq+gVFyLezXi0VVcVYbWEvwB9lE2sfQxgh3gGU1QYd8EvwVTrdjYAtlCHZ2wdoH9z6nTL033W+NFjTai/e/p+HO/buHtS7vUL/S/L2iByDJyK1D8CfOLh5aQ8KIo7oLf0B+Y2j3Jfnhfbe/wa5PforVu07iE8ctLysB8RZ1FwDy5ANO/ZlZY9USPSkO/ULaOBAcm1D1nXHwwLyCRbIWGGDUVDCwiivRQJwAzhG1wQjRlf74u0ZN+SqoJG+0fiwt8frX2efvd6SCCVgoeoIQjMC/G+esPSGLMBes2NvGL2zYYPp9jbBvRCDBMdVy3SG042qAncJ90SMOEtjutJOqIZUCjmx1bCMiM1nYdJ/qO275xVVmOgiVv0nDlCg0p+YfSV6O1LJcxAXsroiAA+pMQMSVJhaq8mJ3kAN7aAxsYDaYZS0Wt0gq9OKAJc4+DPoPITuJ06DPWdAggKEyxhb55muQ4nGMqI+A3TaRoyRvUrOgikj+FFZl4hIlVYq1iVucNyv8+QwA+KYwbZZaS6EedzPY89tQPNCQVsKCaO+eh9QHkF56LKah+AGquzdzZnHq83eow7bEyQYouletTdDgMOTrPzHQkHtc77O3hXFrIX37Jv3P6H4iH/EwqPZpGv8+jD+spJSQzrsXGwrKYIH6q0NGmCKD2H2URCIWaYAsbNP2J/mCw4N01e/Uv7XXn98PIk+nJ6eLi+qy//7J1T9dHl+5ds/);lineShape=1;sketch=1;hachureGap=4;jiggle=2;fontFamily=Architects Daughter;fontSource=https%3A%2F%2Ffonts.googleapis.com%2Fcss%3Ffamily%3DArchitects%2BDaughter;fontSize=20;fillColor=#ffe6cc;strokeColor=#d79b00;" vertex="1" parent="1">
          <mxGeometry x="115.31349365565825" y="406.43737250168715" width="87.25250608200508" height="41.29650416273398" as="geometry" />
        </mxCell>
        <mxCell id="jKpcpNzdO18rDiMFqW5U-54" value="" style="shape=stencil(lVjZbhsxDPwavxKkbj6n6X8EiNMYTePASa+/L7eGtivKHqNv690ZSySHh7SLd+/PD2/7XeD3j9Px6/7n4fHjeRc/7UI4vD7vT4cPe9rF+128ezqe9l9Ox++vj+ffbw8Lcnn6dvyx/MOvM0+VclhYgX+f30SS/PfF5zP+5fC6xRfKPOAzcbmOb0olD3hhagkQIhUdCZmaXifUQqkNhCCkfJ1QGsU4EhpVuU7I2j+vPirEDRCEOA2EZFYBgn3m0ejMVAHBNiAuDJUYxC2yj3MJFAEhTCuUQi0CQugmdkI1G9AKTDyuUBMxWEEq1dGGio025eTRrdVCWQEhUh2l0cxLQN4SKIxbaqmveZnApI5g+gX5oN3pK751rVzOH6plxK8ZfjkbPF7NJGBx7uVhxSdqIHmE4pgKVnEaihnx6B/hVScXCSYynhYADmJK4vEZqI5JRllrIwUaYp/7hg/A4CkLtFICAeBeb1d8oQL34xSqmRSUFu6rb/BIoDwJyCSCsriXzg2eUU5SVI9HAhUq034q0I9Qm/wZQcJIj/4mXnj/2jy+QXxz9jYq0J+z/gOIr/RobvCoTEuP5gaP9dOm/FKo/zztH/VK7tm0wQvOxyl/M6wncz5WoAfuPWujH8X1ZNKbwHoVnd4yFbj/Wf8BFGj2A9oNfCId9bk0GOD/4vXfKgWwf/VzR7vRYEwQo4NshIwoAaT7byUIXiH6kNkYAQlrRdsMKqgH2GQjblCxMQIUXVFKjiD9zbXpLLhxrsG0sUbvdFQSjJtNmH4k1T7KXyZkP1bn1LV+WXnBl7qEZ6E8aTsxrF22Y3c0iBFOyaWSjl4yvynoTnZakdFoC6WA8rKIeTTa5IgOH5aOrkBWaPNSftz5CQ7VS7kdpce38DF7PMp/9Q1hnaiu4Yv/fyTspd01h49ARMs46fFo3lra3SgJm3hg/Zo6jsANXSSgU828o4DP+OpHkABry+JRj68YX8byGKGH/vuO4ibeHv5diDwdXl7O9ynb7/4CxV6dL1/i/R8=);lineShape=1;sketch=1;hachureGap=4;jiggle=2;fontFamily=Architects Daughter;fontSource=https%3A%2F%2Ffonts.googleapis.com%2Fcss%3Ffamily%3DArchitects%2BDaughter;fontSize=20;fillColor=#ffe6cc;strokeColor=#d79b00;" vertex="1" parent="1">
          <mxGeometry x="120.94016179080518" y="414.4340170246171" width="87.622613251556" height="35.32481454958429" as="geometry" />
        </mxCell>
        <mxCell id="jKpcpNzdO18rDiMFqW5U-55" value="" style="shape=stencil(lVjbUhsxDP2avGpky9dnSv+DGULJlBIG6O3vq23Gm0hOTuBtszmyZenoSN6N3Lw93r1sN5Hf3l/337e/d/fvjxv5solx9/y4fd2969NGbjdy87B/3X573f98vj/8frlbkMvTj/2vZYU/B7veKdfFKvLfwxuhVP6/+HrAP+2eT/GVOBh8pioAnyh1g6/U0fpMPRl8CBTyZYNWKFmHQqYYgIHu0IxBZBK+bFATVRuiWCj2ywZFj2hdkkgd7FCCD6poWkBUcyIRY5AyDGtqJC5tkRgZqMf20LlSBoeWRtG6VCKVBAzScGA1UG4hA02TTVxdyXLWQKkWLJc0lQnkIapLbocKqyEqN21YlV0CXAqN2JZDk+HkeYM8uLkaZMiloFG3Z2iNEtqBR7kMA63BBg69FvCKF+IIyOqZpJrQAJPSYMGKL5Db6q0lnmpaB8XDVKIVDGZiEFL2CqMbtIbwcXIoQ3xgjw/wAGwP0NuV9dmtrykECWBfmIpPIMHqv0twuZIAmRKcYYLzhJeK8HXGw/X77A9oOVPRL+dFJTnxoZKA+IfRXU7zBfxXvK34hQ/Q/zjzDfrP1eNxvlr3+AbzVSz+AwXZ/AaoEfAU0E4Vru/6huJRw+dJsdoYGT5YkI0CXn8iUAEjDg/5OMEzFiwXz0IF+p+mgk/Qn8/hhYrzX2BHyl7Re6AGBGuN3knHY1AwSt9s8K1e68FiHdKmnUBAQ/IS1CJkdKhe43TwCGhSUVG0Z9DRBomoJqHaIOnwlNHwVKYdAh6e+uhC6wDYYNmLDFauBgkKl1RqNkq5D625NPVm65JO2gW0slR94lIfE955qoqfho6T9vm7gaqjDasUeDfQKTpbg4W/wKVlKLaZ1txH4FKbJ6hKEd/R3EShFRKAAGg9ujw0OGLqROkUL0EBXvTNpi1SQgKgDdIqJENBVby7n+GGpvg0rY/O271CMrwkL/2uODyaiJaG7fEF4/2tfbSsi3jX8q/cUaaWGWBHWDZwd/bR4y7iXQ2Ma9TFANkSwHeg48BxxF/x53OfZa7i9eH4Dehh9/R0+IR0+r//ZqSvDt+b5PYf);lineShape=1;sketch=1;hachureGap=4;jiggle=2;fontFamily=Architects Daughter;fontSource=https%3A%2F%2Ffonts.googleapis.com%2Fcss%3Ffamily%3DArchitects%2BDaughter;fontSize=20;fillColor=#ffe6cc;strokeColor=#d79b00;" vertex="1" parent="1">
          <mxGeometry x="125.34901639323994" y="424.4353251455884" width="90.21626620416464" height="31.87843571913004" as="geometry" />
        </mxCell>
        <mxCell id="jKpcpNzdO18rDiMFqW5U-56" value="" style="shape=stencil(lVnbjhwpDP2afrUAA8bP2eQ/ImWy09rZmWgyuf39mm1RXZiqE+WtutouwJfjY3Phd18fP355uKTw9e315Z+HH9dPb48X/uuS0vX58eH1+mZPF35/4XefX14f/n59+fb86fb7y8cu2Z/+ffnev/DzpqdKtXWtFH7d3iSK8v+LDzf5p+vzXl5IdZJnKgHIF8pxki/EEcgzcZnkK7UK5APJLN9I87l8E6phko+RCgOFTCHPCpkysFALFNOsICTgyFIpziZKkQJYQRKx81keVjtUqEphPnQSysBKtVCbD82BMnBDTaTzCsx4heAPzZUSOHTZdrwp6PDMsUKhMK+QI1Xg6ZJ8KOVMEZi1mE14Vqgkeq6QG4U5ebLCWMqFZF7BNokOnS19ZFbIVIDjzCZpdpwZOgArmdXTHN7F3iAFGUfcMtrWBFZiC755S5UhZnAeG9gUCl4hUZ3PUAV6muP4e1PAMJPUJ5BYsDSg0EjqrBCpIQXx0So8PHOsYLE5o4ZYaKAzmB9mx4mFI1qheJgxaGtIIftYEhlrHisYqDiFhlewdJkVDJ4ryIdkbnL1JFEGsRTVF5SGozWap+fQ6CUGrSA+H0wB1cRYSWfHtQIrkCk4x7VKBeSDlUAX3lZXMwCByFSdWRuM1mgpGr2CgnywMu4VdBj6WCEMmwwF4xLI00tKq+EYohrUZrDXNCrSibwLVd0K0nEJ9Yhh3ElRufJxZ9wsAupmPnb2sQoN9p+X/QusVWa9GY+MizYUQz5IYwjj1aGCOTj4BRBoL+W8k2OARsGXTlUY07Zb57A26tCZfPAGxft3TNXkE8CJMJj+zsEVBFDwtNPkI/y+y3kLOIRbYYTvTl4Qzo30238fAenoVPYBDQPOx0/FiLIkjAw2dibv9t9GhJztR7w8qscLIlp8MsiX6LmjyQtOSPXyCvOlrfkI/BWoLPtH9DqMBmJ/Xigfg7cnAqDgGwqTR71yOABEVGCWxtHircF85wWgEfMIoxPY5QvGkz+T5wXfeJCpE3l1eJLGMOKkwDhao7ihqwu+4SZ2886OQTDYTxvRtaMoFdhHvb+MNCnK36XAmEJEAGdtiqNlFXbhxrJcX2NMsaIVeFCAHRdVhCmZeGW7CBTLQsCZIkKhuqyQiBGMiiceLWIrNR9ILWA+rT7zRSF57aXSdU6NCgiN3te43qzC2tfHdK77M/aHtpSXVitD+ncf7O0bUtRfVt+2S8IdrPiCbz0ymlVYhqY5Q6vidlE9BbQ+HzVCHDyp7pMEEHycDmYVCGSYPauoDCc6bAnkxicRn8Fo+hwaReFIlK1Mzinah3NghRyG1TeFAplpZl9q+3AOKZSR8puCgSfakvjur78BQGbfC246WGA7V5YpbU6QDpbs+TIrrP99Uudm8QIJrfnVtYycfzfWdRSAI2xZLJgdZ0u4x7H88vcP9gkAZLIgX8IDGsM5F3wGzwl4WrY2dFMoEDWsQLlRnNXVgq4IZGFug6ofE4dlKCUw9HRhYhkWhz4IcLP1USKP5cU7LcIw6jx83n+AjY6qHxnjRt/kXXEL2D7qO7swIPBMvnl5VAq7vDp51Ij0PsjbByXNvW+6y6Ox6W5QcndYRExVPTWP4xrvVN5dksEpazeQOHk07O4O87eUAaD7H99q/lbeHu5XqJ+vT0+3G9j9//7K1V7drmv5/X8=);lineShape=1;sketch=1;hachureGap=4;jiggle=2;fontFamily=Architects Daughter;fontSource=https%3A%2F%2Ffonts.googleapis.com%2Fcss%3Ffamily%3DArchitects%2BDaughter;fontSize=20;fillColor=#ffe6cc;strokeColor=#d79b00;" vertex="1" parent="1">
          <mxGeometry x="116.11353877511237" y="439.43666047742863" width="116.45234276598558" height="50.55226843080527" as="geometry" />
        </mxCell>
        <mxCell id="jKpcpNzdO18rDiMFqW5U-57" value="" style="shape=stencil(lVnLchw3DPyavaL4fpxl5z9UZTnaiiy5ZCWx/z7NbHG07NlplW+jEbAkgUY3wDnFux+P998fTsH9eHt9+evh3/OXt8dT/HQK4fz8+PB6fsPTKX4+xbuvL68Pf76+/P385fL39/thOZ6+vfwzfuHnxc9ZaMMpuF+XF71a7P+/+eNi/3R+vrL31spqny2mY/toua7225ub9tlKXO29VWHfzK32rVsX9t5ZJYdqLQiHaDWvDtl8Ew7VfFgdgnkRIsTUr1uqzbLIAYJESavJShYO3RKt4CyrrMUJgulQiuUoHHDoNUolzEDfdEhupnU65G7BCYdkcT10zlZFHhLy6leHIMOaERNawZnzwiFYd4tDAhxFWHOyvlZPKhZFlHKxtiYOYVBhzc0qrRDNCXgXZyWtDt6COAPyGtYVYpcVWlBAaz3EJsFXsjlaAZwkoAFsElpjkXko1eqauJgklko3T1sCjYmKQ33VFXwRcRNYqsESbclJIkPJ+xWtqPKiVigTzJtDk0RWUUDrlgLgqBw6k/2gc5GH5i3RltKswdsOkbkVApNEHlqaMdkcggQfyJ0EDvSsKg7y4WhLSJw6A6Lu2cGLxEHR4urguzlx6L4jMmhSFwUEjS1rAXnQfREOIPeVNXyWrAHVLys0oKsK3j1ZojOEySO3HTKjFVKv6qEXPjSiKuShg7XWBVDj2p4owM08Htn3RvaKxHpnInaS6WGfA9kHhaLOjY+brHlk3wmmUtu8w36JX8wpSGCBTvZNB6iRLMjWcxx4DRAoVtsTRJPsL0bCPNkr0RmAiGyvAUQ1lia9HtmnSvFpGtAxkr2SNNhTmxokV4/fZwAVvZ+0kpCbADmMD9t/sB/CD3haF4DfFaS23+3f64IsTBCqJx/4J879aP9EQF5PRrcK+IMC6AwgNTuOgmxkLxP8u/YA0JowSIY6MWZjkgCIUlMUsU1Nm0OyoFWMGhwosVcOaeruldZLmYmT9TcHCJtyCJMFr9qPqtKGMlxXGMDTDU6hnivIbgItFDXLIUotQ5NGUQq6/WhlStF1ZyrygEaTm+WsDx2ZTeGgsIRmudAKdV5+HLXjvKUmO5y6Ta9XI0VUM0ixQAripERhaEkrNMZYJMKKsYg0DYOX6kKq5wuhmGWUMNqxCpZJC7cddlHCeKpuXzCe8izYZmaOBuC4G7G7mmc3MF8N8U6dYRuCNocg0VpQ09QbRTlH5c55SDiVyHSuE5ubQ5VTTs67dqrJPOTI+pzRkSsHx7NgDpJbU+Mz5CRbqpQY3hk/oS61PN+NFMzQYgVgkzRuXK+IPKC+aCwC4Js4dNi1zSjaJioOPJfXLYFHukAr5IPovm1wPLqCpQuhto2Ttx0SD/FQDAVv77hXguqpZrgxU0JW1T175mFqCL3gjLizz7L3Cbv9VCnqu/us9+7ywD53tleC63bjvtPds2OOHAuIYnbc9owDCAw5vtAe7be0d43tlXY6Rhzs1fS767XH/YI8795eTYOOVQ32alrYZqErACmacHxdOZpped7wWx+mPrbHw/tXsK/np6fLR7Tr//NXM7y6fHGLn/8D);lineShape=1;sketch=1;hachureGap=4;jiggle=2;fontFamily=Architects Daughter;fontSource=https%3A%2F%2Ffonts.googleapis.com%2Fcss%3Ffamily%3DArchitects%2BDaughter;fontSize=20;fillColor=#ffe6cc;strokeColor=#d79b00;" vertex="1" parent="1">
          <mxGeometry x="119.43582831134972" y="429.2975239213854" width="114.29253513445519" height="41.26832724358951" as="geometry" />
        </mxCell>
        <mxCell id="jKpcpNzdO18rDiMFqW5U-58" value="" style="shape=stencil(lVnLbhxHDPyavRLsJvt1dpz/MGA5WkSRDFlO4r83NwvOTrNnS/FNlqs0w3eRc5IP3x4/fX04Zf729vry58M/589vjyf57ZTz+fnx4fX8Zj+d5ONJPnx5eX344/Xl+/Pn67+/frogLz/99fL35S/8e+WNQY0vrMw/rr/JxOO/X/x+xT+dn/f4Sk0mvNLlX3fxStImfKHOAJ+olgnfqPb7+N5JZ3xiaEBXamkmCHECBKYyW5wqZfBKrVDrM2HQaIDA1GcbslDX+4RaKeWZ0KiBJ9QUoybmZ2B0adFLUiiDJxSlVGfCFpljQvIwbYmUKIPAaScJBHG/HRMqyRwHtdwDgVOlMdeCWvIBo+0F6pzcOtwNx4RMJVQDUxVASKSzWwuuT2WSOZeKeEUdEsTeOLySRRrYYHFlnQmNGJS0VBpzHEqnDnqGpdqY07uy++2YsASuZo/9McEyZ3ZrtfwFFSeZ+uylWrykjglpsaFRxgSeA1c7VRBpYW+8G8HaDHhCHqSzl1qCRudOJRCyZ9cxocX0bkIFESrV8ASFNW3To8xNoFkzBsln46nM2doaKcgla706Z2vr/sxjQo4l2oY3z2NCiiPLRgwq0czRrT3BerB5U2cvdXtJUHHJCnKeD12gW1OLNW2EAWwwQgpPUJjeNmRlTu9usUc2lDinu/0JEIdkSmAOXLdGhtxqXWNEAor0TVlsBBtioLemvHip0wAlmhJJIAxPx2N95VFy/OB38KHJGH4AfPPX3fBmEghzjVppCIxyiSEwgVlAomrs26PgcRilmAlepFfZJ9mGH1BjWKXP/knMcHpybBYDi0l2mbbDN/hCIeMMj/ojx+lveAYJsVm34bv3/Hv4HPEJTDV7/7nERvON5p5/NOIF2qvL308ggTgOKMMz9H8sgAYlJC8F1lwXH3cIb2l7/6CO4tbt/Y+aYtT9l/iiQRBXF8ufhHrokg+DCsCzl9++ICE+7L+X+oLxKmF9fLeAZSmwDgOcFgOQ/mAvvx0+Q4PDTLKANVzACx6tv3yQcGiZZZ8POzxuQGHBMTy299fw4tbtJhKaALo03Aw1b/Etd8MneEGpS0FuGXIHHyaYKQK0C3VvTzvJgQq+x4lqIqighrJMJNNlFWuaMDKMAFtQ8gDtpCLUljlOYSOgpmtCLmpLLDtMW4YoX/QxiIKp11DGXWCZGSHGOeM4LJc72yLQac0kewmZYcMHubX7krEjCPLSiKnRcK9b1YotZ6i55GWrtvUPLsk5Jp8R0MHF+kUQRK3ATcgaRiRs54t7O28kCFWQrdYCotEZHu9MtccnMLah+RKwuz005KUtTPvrBrJheG7u7icovYXj3l4rnCOS4j2xFqhkJcdJUgUe70Ti6K8ZallR3w53hy9FRpdYccXcCoaJbD7ZCNUPVceE5aRTClySpbu83B0gUSOTES9lBfclTbFVFoZ3LM1RYiiWPLoETvGSoBq9pAVuaWoTLZyaFaaGvXHQzYoPweaTcNIxR8PN2gZUOPlXGIfS4mpqCa9o10+xRK3K0SG4lijmM3Zr267pGyH7/nBMKFTmXLIhhnLpNtE2gsLvHCYUgtEpQa1h8iuHKYq/sCVvEVs5wG9BY/1SA/eRUeMVOPsKfYwf8R66nQzu4cuCR18Ihw+OHR75Z8QzH3vt3cOHUcXv2Rv6F8Nb6+1+c8PDhZmXEwr7Eez/EhI8Wdw23htesYfCDSLBOXjxaAv4jvFtBDzSnb/8DftdvP1w+2D+5fz0dP3evv//+IHdfnX9OC8ffwI=);lineShape=1;sketch=1;hachureGap=4;jiggle=2;fontFamily=Architects Daughter;fontSource=https%3A%2F%2Ffonts.googleapis.com%2Fcss%3Ffamily%3DArchitects%2BDaughter;fontSize=20;fillColor=#ffe6cc;strokeColor=#d79b00;" vertex="1" parent="1">
          <mxGeometry x="109.41833994600916" y="449.4344674955478" width="133.14594007478263" height="53.086709783335436" as="geometry" />
        </mxCell>
        <mxCell id="jKpcpNzdO18rDiMFqW5U-59" value="" style="shape=stencil(lVldcxQ5DPw1+6qSv+VnDv4HVYTLFiGhQuCOf4/mtjwZt3c7x9tm0vLYltRqaU7p3ff7j9/uTlG/vzw/fbn75/zp5f6U/jrFeH68v3s+v/ivU3p/Su8+Pz3f/f389OPx0+Xvbx835Pbr69PPbYV/L3a9Sw2bVdRflydRqv734MMF/3B+POJt/Hvgk8RO8E1im/BZkhF8ldwnfBFNBF+kRMD3QvBZYp3wTUIgeL+OPOFtbPA6XqWmCR9UMnmBmYR5QyGKkRuyMja8G1QJ5IosSJuvKCo1aCZaZoM8ouS6gV8qBFGnUdF8A/MbUpbcbhtU9+ocRqmLMYMgNm8pF4nk0KVJm99Q3HGZGCTpEKlluPK6gY7I3w26ZJJruUqfc60mScwgSZmDte5LXDdQzLbax0VfNUgNr7V5gjCDInn2tAdLJ35ICW+pVWnEDylIBQOTxN7gwTd7unVpJLw95W02MKXX6pzS5i1ZFI3EwI9Y0ID5wVkOaMaSGDn0RrtwhkyJ3nld5+Bz4knsDGGky8HASD6EjuFtVRLxdHC/FjQwcgYnxjaHtzXKfKGM/DoYZHLokEYwHwwKYb6N3BsaMCILAWlmqxikPni9gYroBkbO0JG8rUshfluqg9e8Qty2sFgPUsiJy0jGHc9zISOHeY1vjJIkwv49TFgUSZjj2jVTI/ejy3k5p7piKAueOFhHRB73Q0JOJS74TJJARecIdc3XSfwoEoXjGVE4Hvzb6P07XSviA10fFJ77t5L41KE8DnhWZXWJz0rrvg5BesBHUm7CSO8DPjMelbSclwlI52nD+2Tx4Nk6U5z7VxlNL/noPQPfP+ynv3E/wFdbD0Mkv45sOuYXjZ8253vQPcRvBVDHFzAHeIAuG2KEqCj4HR/ofjSiAwpP+CXBOnGA4yviecJEWL8OfXQDnzrimU7+U3xaCC5KYSoZpdPW5BF8wfvxglrJecuiFm2o7OvdExZglxBMIRu24MYJog9Ff8BT1RSQoTflxyqqN2cdDShFxLHewYCF9KbLFgNKcnt3eJS7hFU2bRnRQNkZ3A2gjzMNC9fHGBd5SJFbChzVa6JKLsZFH0ea+TGjFnIDVvs8tqE4WaB+cLUI/aL3Wo2wtWdDXro5NgGKywTL+0WmtzwfOvS8bcTvrY40g0GVQq7Ve94wx9LWJDODsrSwiWoi79uhKWhK2468kHa18c5bswdIoFroZC3X0SjtBoHeUlHkvdJGF3xrQgOzO3/CCoOvB47LRlPUdwzR6tfwxhwLxq3JaC2vCwkkPnDxQLA547YMIfngwQzzk40W+DwR2nCntkDywWmrwYgzizKDhnQfOAn0RfMbTQcv+IAvlAJ6Gh30YYrNpsxeCsBrdP6zdRDz+nxe5HjoKTir9n0iNvBKM8cFJrhYqeTfOkpDPPuK0JGD31wfiu0+QL6FNzwvGwn2heKVKvLXjv4Vb0ws6KKxA62bVw0Ysaw7ClRjryeOQxX/zxuNVPOvHov8u8mffod6E+8/Xj96fT4/PFy+mR3/jx/J/NHlA1t6/xs=);lineShape=1;sketch=1;hachureGap=4;jiggle=2;fontFamily=Architects Daughter;fontSource=https%3A%2F%2Ffonts.googleapis.com%2Fcss%3Ffamily%3DArchitects%2BDaughter;fontSize=20;fillColor=#ffe6cc;strokeColor=#d79b00;" vertex="1" parent="1">
          <mxGeometry x="115.15196541481032" y="466.3191903374127" width="129.52414770731684" height="51.594594594065256" as="geometry" />
        </mxCell>
        <mxCell id="jKpcpNzdO18rDiMFqW5U-60" value="" style="shape=stencil(lVnZbttADPwavxJ7c/mcpv8RIE5jNI0Dx73+vhSMXWkpeey+OdZQ3iWHwyO7+PD5+vSx3wX3eT4dv+9/H57Pr7v4ZRfC4f11fzqc9dMuPu7iw8vxtP92Ov58f778/fE0IadPP46/pjf8udg5SnUyCu7v5QspVC7ffL3g3w7vC3wgnyyew3V8Jl9W+HIdz1SDxWe5jveeoowGmSoy6I+7QSJmcGNPzhhECgkYdI90Az0kMIiBAg8GVcgBJ0WmMv5CLZRAFFIgHsNW9Q4eGDDFPBiwEGcQZ73ieCQuLTLbBomyMYjN0dsGTD4OBkWaG7YNxFKjFOjW4in70SBQApcukbIbDHKlEoFBpjimm7pBQBwKUzAGHgZOfeLHS2soMyAfK71Ht6YIE4gDyRi45CiAS3OyOR01p0HGKXN4PFKM5MGlWb0+sjUICbh0dS2u3UDZBbhUQ3vcDRIlwCXNLx6FT6XTAS5VpcbIJS9QlzTl2RioeKIjMckoM760pN02EKt8XqUSUEOcVXuvMgMurcIYRreqnqNyIsHqkneN8NsGkdLopdp0ZxufbEEsJA7gM+XxQLmdcBtfWjZ2blMFTBWxxNP7ovNIKzUz3mF8Lvb96Py9DMz4DJJf8WJYClN5wleDrwDvXb9fTzTKoIGRrgxzAFASKN6qFwnIMsUbLVJGYQelZPAFEVqa/s94xgE2/tHzAFmRau+byCH/VCtDEdZ96RVyjldB/lT86B+PE7La7ksJh/hQm2guCI3972wCwPdrvOz7byRkEotH8ZJGlxkf8XmqPT/0pzS6z/5ExXszIW8kmClL2gfeuIDFo4liUiybMPGGIlo86un+G8+WQFqXEeGKbdC6YlyrYLbMO6rIoXEl0RoxRLnQGpNFX+DQkbzVRJ3CoCg6W5W0VakgaHWlor62XmTboNqZy/c4XuuenOkAHe7PshUuTQSkvDXZdmuSdtTF9vfd28W65sRFn8yAGjr0mUtHXF15NaTFDMsT5zY7dAOBd9ApMZp5JcA46IBjev2Eh+VprDRTnYOTqQ5ppgRmLEk6Bpo46HCLcloHTTGTqYdtrz42Ww79TVRG8qqvKxUvdthmHAfY+eqkayYijT2qPDrp2g2BwMXLPOn2Xj/ADYEyxyifDlWou4682qPIrdVOHFNUxROV/1AsNVTPA4j01N6YXyhtqLq2AJMx0lqRUALpSGYirT2ToIG/TTQdL3CnuN4RSlsx3LmDFNiSr3acix7likFcHwhQ27Uhd4FHQ8tqTJ56COAg1xqiBT5gvOkYcMBWHZvi0c5oC+8x3pyH4TJxfV9uU/yd/mSYxut4ldZT3smHvqG6j3A3luq38fph3uC/HN7eLv8AWD63G3/96vLfgvj4Dw==);lineShape=1;sketch=1;hachureGap=4;jiggle=2;fontFamily=Architects Daughter;fontSource=https%3A%2F%2Ffonts.googleapis.com%2Fcss%3Ffamily%3DArchitects%2BDaughter;fontSize=20;fillColor=#ffe6cc;strokeColor=#d79b00;" vertex="1" parent="1">
          <mxGeometry x="116.43693469570303" y="470.34893784581004" width="117.8427253633306" height="34.21825981317784" as="geometry" />
        </mxCell>
        <mxCell id="jKpcpNzdO18rDiMFqW5U-61" value="" style="shape=stencil(lVjbchoxDP2afdXId/s5Tf8jMyGFKYUMIb38feXueMEyeyhvC3tkW9KRdNaTe/rYvrxvJssf59Px++bX7vW8ndyXydrdYbs57c7yNLnnyT29HU+bb6fj5+F1/v3+UpH16cfxZ13h92xXCiVTrSz/mf/xZPO/P77O+P3ucI1PFEqHLxQDwAcy3OGNJ+eBgaGUegPZwawb5EQ+dAY2tDPeNrBkewNnycd1gxTJ9j57JnbAQF7b3iBR4XWD6Ci5ziAEcsAgJEp9WCP2IVhyvQ8xUwQ+yIlDv0PyxCDT3lLpfUiZMjBwWVNPMpMA95yn0Ic1R5gHx2TUDplKWjcQ5riefJWO4EiWW9QXA6kfcCQTKPXkK8IuQG9jyKuCSxTBkYRpfZBKhvVjiPsYGRb6Au6xpp70kAI2kBBZjQ/AASY7rI+Ix+3tlcMOlMLi3VVAUb8Y14+U7SPnj2QAJSQ+fd1Iz4w4/kbjLSC10c2o9mTgryE34FE8zTARhOMQn4qOD16/KH8TMeCPGQogUYbrZ/9YwURV8oUsXN8bjU+oRZAZ6gU1LaY8rI/xYTwP5vPoL67HMsQT8pmH/KK5MQzXygfor1H5Fb7B9Z3CYz5zY8t/1gsP/MT1yAP/MV6kgTq/KC48YXSCXRMLazNMDz2pOaDpagrU4BaKorHqG4MXA+nRIKZVhSoDf09LKNZl6QPIIGshmxb9sqaHlMwUAZWR4oq6MSaGgy+YJr0XTecpgjyE2NK0yMxMHpSOiMrSZ1r2RLMmliZmFuXrKAODNHDJhbbnbfVutESzGX5QiEZUQvbSkW9/gXDTV4sikkOiTxbX5stFQsGJXwVBn4fYetptfNYfIAwniOB9VnjUkQSvJN0inNfwikdYMcrAMPo8jAJa9MiUGYTiI9VvFT6g+BRdaQw5dxG4S4Jh2VR8v76FhXyluC8G8c6BVNXAkSz4rPEZJ+yxW4G7eHm4XEG87fb7+Qbj+r2+spC/5usO9/wX);lineShape=1;sketch=1;hachureGap=4;jiggle=2;fontFamily=Architects Daughter;fontSource=https%3A%2F%2Ffonts.googleapis.com%2Fcss%3Ffamily%3DArchitects%2BDaughter;fontSize=20;fillColor=#ffe6cc;strokeColor=#d79b00;" vertex="1" parent="1">
          <mxGeometry x="154.8667297002021" y="471.42123951854364" width="57.71202727884497" height="23.112757212925317" as="geometry" />
        </mxCell>
        <mxCell id="jKpcpNzdO18rDiMFqW5U-62" value="" style="shape=stencil(lVjZUhsxEPwav06NNDqfCfkPqjDBFYIpQ66/zygubVaj3Sa8maVbx5w9OsjN6+Pdy/Hg+fXtcv56/Hm6f3s8yKeD96fnx+Pl9Ka/DnJ7kJuH8+X45XL+/nx//fvlriHbr2/nH22FX1derZSksTz/vn4RYvf3w+cr/un0vMYnin7AR3IZ4IXCuH6mGPbxpRLXAe+YSgIEoWoIgTI4US4kZSQUqhEQPEUeCH651CYhJbuDL8Tg0onJjwTxlHmfEAPFOBIydFuoFNJACAytFCKJIQhlDwiO6ujokMiBS4ta3Y2EQhHcQXQ9E3pMqQCCUBrvENWV4NLiKIyeVkM7EHy+Wj/ESLECQrbRGlP/sk1IlMylCwXgB81HE0saXShDNZjzeKTkidGlPTlDUCsBP3imEEZC6ntuEjQhsyFomQKh4dSI46Vb0oI7OLXSGHw5dlduE4Rk9IPWkQqKgHPdTZ1Q1G6AoDccQ6ksZ9wuSzaSihYZ4OfUDdLxVd0CvBZtEaseFwCS0Wc1QLxY+2hrQVV1yfUFX7vTd/ChfgwvzuJRkHKvDCs8Pj+P/q04gBTPFi8gQrk3gAWfKWN8sXiUxdqjzHkS9C/bBtL8C+KZuy5Y4T2IZ+1fYvEC7Vmn80dwX9db9so+DHqy69m9wkdUIKb4Kb2//ef6Bdp/Pn8lD0oi23bcpCG2/7Q+jmfTKh0zNKgGULYbFHggP10Adfs5ASo5GKA2wQpsGXMCZ6gz5wKRewrtFSCDT1Apqz2nBAiwwIVi8QL99TG8nwJOusd3GkYx91XJCRuSEaTa8JAgTV0mrRsqCOjcld6qYSdgT00/0+A9Fawg2EiOijN+smhOcNjSSakYguAatJTMhcAwZ1TJGVWQMlRBLQvGsqjiEskgrXPF7OD6vLand4PR7OoZJME1kMYdYu7aaE+zyzQVJJD5GkrZDCoBpr7Gkt3BQ3Gjk40fYyk62J10dgpjNugIiaqXxJ6Mq3EOjRE6/2Uz/0UqwA86Yebx0jqSIk+HaDNal2C0Q+2KYxmrC4zW5iYzhwdYw9LUdIShlXRScuYtIcLg08HHlPnWqcEOOseYHTTLkVAoOjAaAh4YtY6WkVBg0dA+YII1dK2x9yZlZjMPE7oJ9RHP8Hmm6Yhg8SDu6jTKLa19D2/Sn/uEvYcvdn2krJsws/eFjaraaXrpRNtFniep42AWbBKgh/VEY2LqLI09YDqhh48mzaJi8O9YyIhfD0vXh19Z38Xrj39Pug+np6fri/D6//YJWD9dn4/l9g8=);lineShape=1;sketch=1;hachureGap=4;jiggle=2;fontFamily=Architects Daughter;fontSource=https%3A%2F%2Ffonts.googleapis.com%2Fcss%3Ffamily%3DArchitects%2BDaughter;fontSize=20;fillColor=#ffe6cc;strokeColor=#d79b00;" vertex="1" parent="1">
          <mxGeometry x="123.42471294891129" y="489.43411504648293" width="119.13861770241283" height="37.15363782136092" as="geometry" />
        </mxCell>
        <mxCell id="jKpcpNzdO18rDiMFqW5U-63" value="" style="shape=stencil(lVjZctswDPwav2JIghee0/Q/MhOn9jSNM47T4+8L1iPZgKJ18yZbC4oEdnFww3dvu4fX7SaFt9Px8H37a/942m34yyal/ctue9yf9GnD9xu+ezoct9+Oh/eXx/Pv14eBHE8/Dj/HCr/PdiJU6rBK4c/5n0K5//vj6xn/vH+5xuvraPCNQgX4QJENvlPgdXyvFKLDlwTwgbpdXyi0dXzLVDy+5nV8bVTF4GOgBDZUA8nCoMd1g5Kp2RPHSK2sG+RO0qxBoo4MmHqyBpkYBI2FknVSrMQCDApFd2ghBmFmPWI2BomJQRwGDeyWlHgdfEF5zMEYsHoJHDolzzzuUAqx+zNkdSuIQ5ylNWstQC9pXLMNXKnQS+J3VPVQgKyNij1yrdSBesrkwVn8M9s/Zh41u3+VnwAt8PR2xvcp3Xwcs4n3c7LIVEGMIyXLCWlQzNEnL+mUECUouPWFImCEZobs8Q3EN1C1540hTJ9cMcjFf6CDgGluax6fgYMW2V0dVOGBA/sA3MA7h9YpD/zn+gUSSPdvCSqZMvRnsgIQpgrXz9njI9x/dftPUGDL6sc3CO39qbUBnDd+4J/PCaxM1W0NbwWv8e1AALof5/9GAvHB8b/f4L8sBFyA4IOv3YoX4J/gE+7Ag4Q714crPOZbbP68yD9hat6u8DifLPWIEnrwNXXwAfrzc/g0eWMuGJUa6jumAj3jmQosYMlW7IYrdvFdSsX5qnn+a8FG64vP56VRRnpMU/2ZDXBzqT2Ka/2yRgBlCK3QtvXT7hFJXjXZLEeZb3VywQZBm8GISNG9ajTuEbUdkYrrqDuUPS+2pB11AV5SnzhhapOPiKE9e7NfkMnPq0OBrTQNJhadOtxcU2F3PMYae4ACE+mYm1yvCzunMZdZJeBC0+eh6oIPINH14scypoyEppnUZjo8Y2mecplFaY7mYvGywY3cJe9f4dH+xbfeeGwdfaHHF7x/Vynjrf1IdXiUeAdenP9hYxMWpUkDhi4y9AOWoAwFOfAuMVJEo5j4WQkTegTMCwZdZAxCeEGi4fPTFz038fpwuVV62j8/ny+lrt/7Wyj963yDxfd/AQ==);lineShape=1;sketch=1;hachureGap=4;jiggle=2;fontFamily=Architects Daughter;fontSource=https%3A%2F%2Ffonts.googleapis.com%2Fcss%3Ffamily%3DArchitects%2BDaughter;fontSize=20;fillColor=#ffe6cc;strokeColor=#d79b00;" vertex="1" parent="1">
          <mxGeometry x="116.31030432597572" y="513.4353379175352" width="119.25498772025048" height="20.62404945619778" as="geometry" />
        </mxCell>
        <mxCell id="jKpcpNzdO18rDiMFqW5U-64" value="" style="shape=stencil(lVjLbhsxDPwaXwlR1POctv8RIE5jNI0DJ339fakakldc77i5OZvhLkkNyaF2cvf2dP+633n39n46ftv/Ojy8P+3k0877w8vT/nR41187+byTu8fjaf/1dPzx8nD++/W+Iduv78ef7Q2/z3a1UkzNyrs/5yeBWP49+HLGPx9elvhAuRp8zQDvqPgJHyG+RCrz+zOFAPCOXJnwlSRt47NQ5AnPnhxvG6REyc0GGjH4QqyUZ4+4kIAvRKGQJwPPVMAZhNI9HgaRGLgUhMR8oVAALkmlNMcgTMkDg2SDlkAxAoNgz0EysQMGfuVSpVCBAZOXmancuXjVQJlTDbUDeZAlTWKe0xoSReCSctkWW4Fc8on87FJkEpAlrUbjUtQYQP14IQ6zwXDyugFTmGNI3J28asBaD8ZAC6gAA6X37FIqlEAMnEjmk84euxQsl7J2JUANFsulXMmjGHwvyG5QmCqKYZzrMAjkwEmzswWkrRMdXO19feBxW8pU5lNorRyEnDqTB14PAQSQbBOrAjtGJDf7r6OoAv9DbycDr8UEJo/rPXfgK6xNZ+dCw8P3S7F4xGrXs7fAO8BRHYRz5ddCDPLpOr0GPt/Cs80nathulf8IlYXrfWpxvgLjDQYvvfdtnVe2+AjzX53Fwy5EzNZ/B/zh3kAW+IxaCkm1+cyoQVAwfNYZDfK/fn+G+Vz7X274w7MQVD4HyIfKFo/6j7M9nZ2DHVQJFO0HMpgaStAV3sOCsQVQ+uj8zwLLUOCsCzj1iLbwpkFHKK3Vf0OIAAeMsyJTCwYNVde10rIg4QF/DC+WEDrAkHZSUbAakBUOpGQGcO5PNgZenPlThm65vtpYGVRwQ6w2/8VD+cpjni9EzQ2NkucIMpYQqoKKMYhY+o0IF0oOcY7HNrnQiqhLcLasSBHKFJWvZm6r3kVlqY3ODGJV1BnwyHsrkHUjLEiCB9uq46i96waaJbMKZbgwqvjj1SpUAVfbPjkfXNCoAFmVrWYcB61v8AVxVl8KJp8ujGZREXz1oCupmJUUK1JZXQ00J1FHqhTnLLUiB1nSxd3MHI9Fgp6rUS1Kxwi+EFdXA7p+MchS1IObqcGjcW5doJigtY94fEVjlEuBwr1dAc0fiHALb1dM8/sF9m0dG2an9lDYNR03E8/hK7LaiX/BI91y2RsWeNC2m6yxeNTxms6y/iDd0vYeNnh0z3LZqwYhoI5a6LiLAVSyawPf9/dNj4rBo+bV8JZBqGZaRk0rgo2lnVg2+ILxtpmSw/iPXfrexOuPyw3z4+H5+XxBvfy/vZHWR+fbbPn8Fw==);lineShape=1;sketch=1;hachureGap=4;jiggle=2;fontFamily=Architects Daughter;fontSource=https%3A%2F%2Ffonts.googleapis.com%2Fcss%3Ffamily%3DArchitects%2BDaughter;fontSize=20;fillColor=#ffe6cc;strokeColor=#d79b00;" vertex="1" parent="1">
          <mxGeometry x="115.53557777212518" y="522.43445605124" width="124.02868067890859" height="27.378140136180946" as="geometry" />
        </mxCell>
        <mxCell id="jKpcpNzdO18rDiMFqW5U-65" value="" style="shape=stencil(lVhJchsxDHyNrijuIM+O8w9XWY5VUSSX7Gy/DyYKZbFnphXf5HGDAAE00eQm3r0+P7xsN8G9vp2OX7c/d49vz5v4aRPC7vC8Pe3e7Ncm3m/i3dPxtP1yOn4/PJ7/fnmYkNOvb8cf0wq/znZOQp2Mgvt9/tBUUvz75fMZv98drvBeahzxWaqu45PUMOKDlLCOV4ltwNcmjcXjJPvRoFAHPkkYd1CDqCcGVfIYkqrUum4QongwsD0XYmDrjQbFikD2EIPEMavFvhAPsfSidoOskhMpm/VFGQ1Cr+SyQZQ2GqQqnnmwAHQ0iJJIWrPrjdANYutpWDZIPYCLQZbIPCiSIXrJpPmKNZ8bDAJvjWJZyqOBBZmJgWUJDMwnqbR63IM3ShEPmqSNWTKGsDqo8QE8eFESkvErwBlAu7tmUeBPb8ZlfMM6W5lJ5zUvbVw/SiUZaqmHe6kBPTBaER072/czahnfekU73onj+FIRT/Jp+OoA78mRbfiGeDYSJrwC/l8BV45si9dBgoLjDhrg2RE/4ceGCN3haoKAZBJ5ARTXzzye4hFPEmT41BDPCxAV42cEaHhGWH5u4CPmnxBywnvAB0Yww4/5dF1lrO531qC8odOMADz/OQDe8XgKxn+j3xQJ43m/VcTHG4TMgL9Rrxm/HMEvEpiNjMlBATwbk9OGsUEDJ5giPvENlwL4zOP5GL5g/DZhWIETNlzmJ3oQP+a/UBVhExLUnEohDWQTuOHEzmz90CXGtSQgDDANoTPRwXasuTPkYlD6Ems6KEFIVkQSkikthRqH3lXLBqlP0YtBoSLc1KKCgDUecT0KbREjVR6meCP0nVK1mL340SD5LmnXVDvc/1KWQlojJRR/puOZak+zC13OVA7Z3aaMdciNtobdnkBTWykZnYPdZMY9lEY3bXQHxWgqmx14dseEa3K1kcCuvQnbu5qOZx4cMq7WTvKVi3iBIyBQFZ77yLjgeUBhhq99qi/iHXLhXeWt4KEEV1NrxSDGmQOyAYeiZZpaRFW4fkRf4ZWU2KJtiGfUdF3DXeEDX99jAdhLy2zmG74QXl4uJf9d4HlDMN47JGVTeg11+CrT+Nn40Zex23j78f4M97Tb78+veNf/x2c7+3R+8ov3fwA=);lineShape=1;sketch=1;hachureGap=4;jiggle=2;fontFamily=Architects Daughter;fontSource=https%3A%2F%2Ffonts.googleapis.com%2Fcss%3Ffamily%3DArchitects%2BDaughter;fontSize=20;fillColor=#ffe6cc;strokeColor=#d79b00;" vertex="1" parent="1">
          <mxGeometry x="115.43487413667572" y="497.5733294290851" width="141.60385205518742" height="42.99153876476066" as="geometry" />
        </mxCell>
        <mxCell id="jKpcpNzdO18rDiMFqW5U-66" value="" style="shape=stencil(lVjLbttADPwaXwkuuc9zmv5HgDi10TQOHPf196VgyDEpa9LcZHkokdzh7Kw2eve2e3jdboTfTsfD9+3v/eNpt9EvG5H9y2573J/saqP3G717Ohy3346Hny+P59+vDxNyuvpx+DU94c85bgzKZYoS/nu+U+YbX8/45/3LNb5Q6Q7fqQnAJ0rJ4VOiAl7QG3X1AUq9ggAlYR/QSPp6QKtUmwsQIdH1gDoo+R5Z0amBACtaXIBm6iClIjSqC8iJBkgpZxr+DXnM77wZoI3Yt7VUUlCDDCo+paqkDAKUUggYpGM9IHVST6WWiUFKKVP169CMLAkECLGnRmdqYB0Sx4UzdhVQg5Hfs7tXYpBRoxIS6iQAb9Pmn2/z1DMogLJ/vs13BbQwoi7wAzTI2jcWeJAPU17gC8iHSbLHW4fh89lTaDRqgKQcCTHq3OE1vJ8a0z+kLRyVYuT5zgpe/cwMnTuwgq+hP0IV6ATTKBGfQX8SSY34gkaSSo75IxlK1GrsD8N8Bsf+J4wP9ZrKwXz6gj8F9NPyD3zoVGE+S/5nmI8s5xHyufvnJ2bYUI7bt70AD4xKxDMkXBBQaxDSdJ7l8mrBBhSIiC9UgUDzQuDyBwMvoT/6AT4OgFDH/f8UPlPzXqWXmSK3rUckRBdSICgXI3O1QxYgcCN6p9ahAJnbq37izX7BCc5zvpcAJcY2gn1Kk+8AJZvb68GoXIzFmhUS/4bS52W8bbbqvGldAhKUCbNzQddzhjWYYax+nc3gJeRhTSm8MqqNEii69ii9gv2frWsOxr1B7e0L02t+TUENdjQogdzQDI2FOlqKYJbf9/ZLj+DsmxQmv2rWUnBSMbymiAcdnfaKHvBodCavF/NRdJYbsxl+xzfQf8PH3QaalWnvCguMzSsv7JnM++f/Bii0W1NGYQpmQ7tasZ/8DA9NU0dLwKOz67RinhFGQTAynz6tf4i3i/dPA0/75+fzl4Xr/+OnBLt1/gyh9/8A);lineShape=1;sketch=1;hachureGap=4;jiggle=2;fontFamily=Architects Daughter;fontSource=https%3A%2F%2Ffonts.googleapis.com%2Fcss%3Ffamily%3DArchitects%2BDaughter;fontSize=20;fillColor=#ffe6cc;strokeColor=#d79b00;" vertex="1" parent="1">
          <mxGeometry x="165.3386614506926" y="531.4341150464829" width="80.22466920063152" height="20.539951072785925" as="geometry" />
        </mxCell>
        <mxCell id="jKpcpNzdO18rDiMFqW5U-67" value="" style="shape=stencil(rVjLctswDPwaXTEgwec5Tf8jM3FqT10747ivvy9UDVURktfJTG+KsysS4GIBapCHt/3T627w/Ha9nL/ufh6er/tBPg3eH0773eVw1adBHgd5eDlfdl8u5++n5+nv16cROT59O/8Y3/Br4tVCNY0sz7+nXxJl/vvD5wl/PJyW+EhcOnwmTgDvqPb4QhHgS6ZcO7xjuKHiKbmeIJTybUJOK0Km4AGByfUE7ygCQpIW4kxI5MCWYiYnHUEchQIIjrjfkugxgBVCpNATgiepgMAksSfkppRNgsS240aIeg4gBmEqoSdUCmAFTaL0MaRICRFUe77XqoPSUCHk/hyyngyIQaVWe4LKMQggMAXuCZk8kHe2UtKCcgEsQL4P2TETgwX0FMwClSpYgCmKxUeI9+b9hQrIEFt/qZkKEOoc3YxPVBzE96pTR8ugmLX4ez+q4Q4+mPxIU+ENfA4WH8B56fGzxXvwfjWS+LH357TaP8int0405gfiXVrlH+zHt/JYni/Eu74ARv2gmm9qX+oT7H92kKX+UcWTBIvH9WX65f0CTqsF0AHwxoYYFpjpTZogJDheCQJ76BqfmgW8cz+xlfQ74w1NgrfyuSpgbHDmwMaC/I94ncd6wZXY+uD2xGX1UByVCAQqtiLHpoccIlHtLVHbKixJ9azeg5K2ciAhH1vGZwLDmGUlihiIwQoSWpHP401pRr9NmItqMUChqTGElvV5REvN6rdnOm7Tz2IIRCNaTFapmjdU+TqXGm/0OK1pFbSLcHrX2dobgsYA3FfHJW8mLjj46rRk2muAStJpKRk7hd1MvcFoW+0AXYe0WRSDR2atXuuCxYP8KF7s+2G81V5udL4AxT/2CnPdanZ5C29Gag/Nd8RXg4fdlVfznN4icMDV3FPaTecW3t464Dw9JjQbfEb33WqrWEsCH4AZ2BNFJIiP3tfv4vXh38eBl8PxOH1bWP7ffkzQn6YPEfL4Bw==);lineShape=1;sketch=1;hachureGap=4;jiggle=2;fontFamily=Architects Daughter;fontSource=https%3A%2F%2Ffonts.googleapis.com%2Fcss%3Ffamily%3DArchitects%2BDaughter;fontSize=20;fillColor=#ffe6cc;strokeColor=#d79b00;" vertex="1" parent="1">
          <mxGeometry x="144.70376272113026" y="537.4268704617382" width="52.867948887528655" height="17.120017960430005" as="geometry" />
        </mxCell>
        <mxCell id="jKpcpNzdO18rDiMFqW5U-68" value="" style="shape=stencil(lVfLbhsxDPwaXwmJ1IvnNP2PAHFqo64dOO7r78utobXF9U7R28bhSNSQQ4028vSxe3nfbjh8XM6nr9uf+9fLbiOfNsz742573l/sayPPG3l6O523X86n78fX69/vL1Pk9PXt9GNa4dcVp42qTCgOv6+/xEzc/v7y+Qo47I/3gEwpjoBKGQECtToAmEnyOqDZeg6QSRGAqY1nYCWp64BaqLYBIIlCWQcUpeQAtoMCQKRSBkBKFEFKWaikEWCV4XVAylTDALAlOK4DpFHQEVA6b48BkdKYUla4A5dOYgcYDQp2YGMpjwCrA9ghNkrjoUulCJrPmrmOvVRDJ/oxQHpdZ4AVDjRfjJ7WWvupHtNKaTyzmhxARlbVkVRTIAdAKumoT8X6ZF9ltSojhkjHEsQQKICEIon4DSpIyOaFO0CjAtYPvmJaKANtBopufSEF4p9PN8cHUph/GFvOBpoC6Vv+PMZbgYFqAtUx/yZ9xxX+2cWb7AA/0UvG4hnww76+Ft9ggzb2+aMbR3q73/GTwWQ0gbl8GgnIR/xs17ljV+LFCTgRAz6tOi7e5i7ksyz6H+mFKbj8lRqaWJ29u3jc/7pYP0B9+fUrHHCmR/V8Nrh+cOvbSMLxi35AduJhPOAnBt8QZR5hjwHsPVfGHTpZMncTZ2ro2mv+DJO/AJrh5V1vbQKKZpasOb+ilJH9iF3kM6DAm1iq942ThQI7mCNyZ0gBDhbjRMYdxJYAk9TsjIx3sQRKyAYqxXF2GW/ITZgzdcM0am/3Ne/rAQIdUSveHzTs90NvzZnVPp/W3gduHOHbxoZbGuWM3cQ0DIuPBwTdhtUtPqHzqreYc9HX4p2HZehWpuHsupQikMFtOM/KxNIPC79S4UNiuYEJGR/YvbZixB1kDDkAQ4Og6nUZ8bNgqvECgK7A/3/1/htgH7dH9tv+cLi+0e//7x/l9tP1QS/PfwA=);lineShape=1;sketch=1;hachureGap=4;jiggle=2;fontFamily=Architects Daughter;fontSource=https%3A%2F%2Ffonts.googleapis.com%2Fcss%3Ffamily%3DArchitects%2BDaughter;fontSize=20;fillColor=#ffe6cc;strokeColor=#d79b00;" vertex="1" parent="1">
          <mxGeometry x="198.25918715974103" y="543.3715062960573" width="44.37314116401308" height="8.226885530172467" as="geometry" />
        </mxCell>
        <mxCell id="jKpcpNzdO18rDiMFqW5U-69" value="" style="shape=stencil(lZbdUttADIWfxrdnpNX+XlN4D2YIjYc0YUKg5e3R1mOIlkSd3vnv88pHR8c7yc3L9v55MwV6OR0PT5vf88NpO8mPKYR5v90c55MeTXI7yc3j4bj5eTy87h+W8+f7/mQ/+nV462/4s3CNUEKnAr0vV2JCan+v3C3Abt6fAxmlGCAJWnWAhsoGyIKaXSCJAUoEeyUltGyAqis4QG2IFmiMFh1AVbIltYLE14FCyFYlJgLRdSITJNolGtiRKRGq7ZzqQE4jooBtI2oFO4BUkAVK84EMsrrmBhIHKGMjUkV1VIphXCGqW5zO6W1pFggITklaQK4G0CKzs0KuaMkCGSE53lARrZlU6OB8dG+TXUFbGfyBoGFG6V8zykPjCLFcB87c/OkNWoPh8hI6MBbQofJa3UdysGtbX3FZJh36YUg1GJySeqzYkr6i53KrBeXbjFYnBjQa6wBofHozmhCHoVZZHTN1QP4HkDima09Dx0whrm7+BBKyE0yc1rQ+i43ofHRBtW4tDHHaEMYwzrym7cXn1ar2AxKvKXLteWuLSODg1ZNsYgRfUc0TWz831xQcR4GYkZweBxmBBHEmRz0x/Bm0AY6garpBofHfpgdfO47HebdbNizn98cdil5adjdy+wE=);lineShape=1;sketch=1;hachureGap=4;jiggle=2;fontFamily=Architects Daughter;fontSource=https%3A%2F%2Ffonts.googleapis.com%2Fcss%3Ffamily%3DArchitects%2BDaughter;fontSize=20;" vertex="1" parent="1">
          <mxGeometry x="194.8631549603631" y="642.8554605684617" width="2.51462274023811" height="2.5223367616044925" as="geometry" />
        </mxCell>
      </root>
    </mxGraphModel>
  </diagram>
</mxfile>
